<svg width="15" height="16" viewBox="0 0 15 16" fill="none" xmlns="http://www.w3.org/2000/svg">
<path d="M12.4933 6.10107C12.4933 6.10107 12.0861 11.1523 11.8498 13.2801C11.7373 14.2963 11.1096 14.8918 10.0813 14.9106C8.1246 14.9458 6.1656 14.9481 4.2096 14.9068C3.22035 14.8866 2.6031 14.2836 2.49285 13.2853C2.2551 11.1388 1.8501 6.10107 1.8501 6.10107" stroke="#303A57" stroke-width="1.5" stroke-linecap="round" stroke-linejoin="round"/>
<path d="M13.531 3.67969H0.8125" stroke="#303A57" stroke-width="1.5" stroke-linecap="round" stroke-linejoin="round"/>
<path d="M11.0804 3.67974C10.4917 3.67974 9.98468 3.26349 9.86918 2.68674L9.68693 1.77474C9.57443 1.35399 9.19343 1.06299 8.75918 1.06299H5.58443C5.15018 1.06299 4.76918 1.35399 4.65668 1.77474L4.47443 2.68674C4.35893 3.26349 3.85193 3.67974 3.26318 3.67974" stroke="#303A57" stroke-width="1.5" stroke-linecap="round" stroke-linejoin="round"/>
</svg>
