<svg width="22" height="26" viewBox="0 0 22 26" fill="none" xmlns="http://www.w3.org/2000/svg">
<path d="M11.0002 25.2501V21.3779" stroke="white" stroke-width="1.5" stroke-linecap="round" stroke-linejoin="round"/>
<path d="M15.9748 7.75V5.74916C15.9748 2.98847 13.7481 0.75 11.0003 0.75C8.25129 0.75 6.0246 2.98847 6.0246 5.74916V11.491C6.0246 13.1797 6.85769 14.6724 8.13383 15.5771" stroke="white" stroke-width="1.5" stroke-linecap="round" stroke-linejoin="round"/>
<path d="M11.0004 16.4891C13.7481 16.4891 15.9748 14.2519 15.9748 11.4912" stroke="white" stroke-width="1.5" stroke-linecap="round" stroke-linejoin="round"/>
<path d="M1.19995 11.5303C1.19995 14.4802 2.491 17.1273 4.53663 18.9319" stroke="white" stroke-width="1.5" stroke-linecap="round" stroke-linejoin="round"/>
<path d="M20.8 11.5303C20.8 16.9678 16.4121 21.3764 11 21.3764C9.61438 21.3764 8.29605 21.0876 7.10132 20.5666" stroke="white" stroke-width="1.5" stroke-linecap="round" stroke-linejoin="round"/>
<path d="M13.5344 6.57538H15.9716" stroke="white" stroke-width="1.5" stroke-linecap="round" stroke-linejoin="round"/>
<path d="M0.937439 22.625L21.0624 3.375" stroke="white" stroke-width="1.5" stroke-linecap="round" stroke-linejoin="round"/>
</svg>
