<svg width="26" height="24" viewBox="0 0 26 24" fill="none" xmlns="http://www.w3.org/2000/svg">
<path d="M24.8125 8.0625V19.875C24.8125 20.5712 24.5359 21.2389 24.0437 21.7312C23.5514 22.2234 22.8837 22.5 22.1875 22.5H3.8125C3.11631 22.5 2.44863 22.2234 1.95634 21.7312C1.46406 21.2389 1.1875 20.5712 1.1875 19.875V8.0625C1.1875 7.36631 1.46406 6.69863 1.95634 6.20634C2.44863 5.71406 3.11631 5.4375 3.8125 5.4375H6.4375L8.35638 2.151C8.47201 1.95284 8.63756 1.78846 8.83654 1.67423C9.03551 1.56001 9.26095 1.49993 9.49038 1.5H16.4519C16.9126 1.5 17.3391 1.7415 17.5767 2.13525L19.5625 5.4375H22.1875C22.8837 5.4375 23.5514 5.71406 24.0437 6.20634C24.5359 6.69863 24.8125 7.36631 24.8125 8.0625Z" stroke="white" stroke-width="1.5" stroke-linecap="round" stroke-linejoin="round"/>
<path fill-rule="evenodd" clip-rule="evenodd" d="M15.7672 10.4828C14.9953 9.84553 14.0179 9.48468 13 9.48468C10.8829 9.48468 9.09218 10.9792 8.74336 13.0377L7.03986 12.7553C7.52941 9.87197 10.0359 7.77855 13 7.77855C14.4764 7.77855 15.895 8.31769 16.9932 9.27141L18.6596 7.625L19.125 12.9234L13.7623 12.4636L15.7672 10.4828ZM10.2328 17.0172C11.0047 17.6545 11.9821 18.0153 13 18.0153C15.1171 18.0153 16.9078 16.5208 17.2566 14.4623L18.9601 14.7447C18.4706 17.628 15.9641 19.7214 13 19.7214C11.5236 19.7214 10.105 19.1823 9.00675 18.2286L7.34038 19.875L6.875 14.5766L12.2376 15.0364L10.2328 17.0172Z" fill="white"/>
</svg>
