<svg width="26" height="20" viewBox="0 0 26 20" fill="none" xmlns="http://www.w3.org/2000/svg">
<mask id="path-1-inside-1_2365_2463" fill="white">
<path d="M24.454 3.28696C23.9554 2.93659 23.3426 2.90559 22.8202 3.20206L21.0567 4.19523C20.4046 4.56178 20 5.30295 20 6.12767V13.8709C20 14.6943 20.4046 15.4355 21.0567 15.8047L22.819 16.7965C23.0582 16.9326 23.314 17 23.5698 17C23.8768 17 24.1815 16.903 24.454 16.713C24.9525 16.3639 25.25 15.7589 25.25 15.0945V4.90541C25.25 4.2424 24.9525 3.63599 24.454 3.28696Z"/>
</mask>
<path d="M22.8202 3.20206L23.3109 4.07339L23.3138 4.07176L22.8202 3.20206ZM21.0567 4.19523L21.5467 5.06695L21.5474 5.06655L21.0567 4.19523ZM21.0567 15.8047L20.564 16.6749L20.5662 16.6762L21.0567 15.8047ZM22.819 16.7965L23.3136 15.9274L23.3095 15.9251L22.819 16.7965ZM24.454 16.713L25.0259 17.5332L25.0274 17.5322L24.454 16.713ZM25.0289 2.46878C24.2184 1.8992 23.1898 1.84248 22.3266 2.33236L23.3138 4.07176C23.4953 3.96871 23.6923 3.97397 23.879 4.10514L25.0289 2.46878ZM22.3295 2.33074L20.566 3.32391L21.5474 5.06655L23.3109 4.07338L22.3295 2.33074ZM20.5667 3.32351C19.5613 3.88866 19 4.98774 19 6.12767H21C21 5.61816 21.2479 5.2349 21.5467 5.06695L20.5667 3.32351ZM19 6.12767V13.8709H21V6.12767H19ZM19 13.8709C19 15.0106 19.5619 16.1075 20.564 16.6749L21.5494 14.9345C21.2473 14.7634 21 14.378 21 13.8709H19ZM20.5662 16.6762L22.3285 17.668L23.3095 15.9251L21.5472 14.9332L20.5662 16.6762ZM22.3244 17.6656C22.7093 17.8847 23.1349 18 23.5698 18V16C23.4931 16 23.4071 15.9806 23.3136 15.9274L22.3244 17.6656ZM23.5698 18C24.0925 18 24.595 17.8337 25.0259 17.5332L23.882 15.8927C23.7679 15.9722 23.6612 16 23.5698 16V18ZM25.0274 17.5322C25.821 16.9767 26.25 16.0499 26.25 15.0945H24.25C24.25 15.4678 24.0841 15.7512 23.8805 15.8937L25.0274 17.5322ZM26.25 15.0945V4.90541H24.25V15.0945H26.25ZM26.25 4.90541C26.25 3.95172 25.8213 3.02344 25.0274 2.46774L23.8805 4.10618C24.0838 4.24853 24.25 4.53307 24.25 4.90541H26.25Z" fill="white" mask="url(#path-1-inside-1_2365_2463)"/>
<path d="M13.1154 1.25H5.88468C2.86107 1.25 0.750031 3.19721 0.750031 5.98773V14.0123C0.750031 16.8028 2.86107 18.75 5.88468 18.75H13.1154C16.139 18.75 18.25 16.8028 18.25 14.0123V5.98773C18.25 3.19721 16.139 1.25 13.1154 1.25" stroke="white" stroke-width="1.5"/>
</svg>
