<svg width="26" height="22" viewBox="0 0 26 22" fill="none" xmlns="http://www.w3.org/2000/svg">
<path d="M24.0228 4.9006L24.0239 4.90137C24.301 5.09539 24.5001 5.46041 24.5001 5.90541V16.0945C24.5001 16.5403 24.3015 16.9039 24.0245 17.0981C23.871 17.205 23.715 17.25 23.5699 17.25C23.4484 17.25 23.3199 17.2186 23.19 17.1447L23.1869 17.1429L21.4263 16.1521C21.426 16.1519 21.4258 16.1518 21.4256 16.1517C21.0363 15.9309 20.7501 15.4567 20.7501 14.8709V7.12767C20.7501 6.53936 21.0371 6.06662 21.4242 5.84902L21.4248 5.84872L23.1882 4.85555L23.1882 4.85556L23.1904 4.85434C23.4572 4.70293 23.7581 4.71463 24.0228 4.9006Z" stroke="white" stroke-width="1.5"/>
<path d="M18.1011 5.75C17.5707 3.63815 15.6683 2.25 13.1154 2.25H5.88471C2.8611 2.25 0.750061 4.19721 0.750061 6.98773V15.0123C0.750061 17.1028 1.9349 18.7201 3.80064 19.3999" stroke="white" stroke-width="1.5"/>
<path d="M7.6347 19.7496H13.1154C16.139 19.7496 18.2501 17.8024 18.2501 15.0118V8.7373" stroke="white" stroke-width="1.5" stroke-linecap="round" stroke-linejoin="round"/>
<path d="M2.50006 20.625L22.6251 1.375" stroke="white" stroke-width="1.5" stroke-linecap="round" stroke-linejoin="round"/>
</svg>
