<svg width="40" height="40" viewBox="0 0 40 40" fill="none" xmlns="http://www.w3.org/2000/svg">
<path d="M8.26167 25.7986L13.866 23.6393C14.4199 23.4252 14.8876 23.0343 15.1968 22.5274C15.506 22.0204 15.6393 21.4257 15.5762 20.8352L15.2817 18.197C18.3888 17.5061 21.6098 17.5057 24.7171 18.1958L24.4226 20.8315C24.358 21.4228 24.4906 22.0188 24.7999 22.5269C25.1092 23.0349 25.5778 23.4264 26.1327 23.6405L31.7383 25.7986C32.3337 26.0278 32.9912 26.0381 33.5936 25.8278C34.1959 25.6175 34.704 25.2002 35.0274 24.6503L37.4565 20.516C37.791 19.945 37.9044 19.2711 37.7754 18.6221C37.6463 17.973 37.2836 17.3938 36.7561 16.9942C31.9198 13.3734 26.0407 11.4166 19.9992 11.4168C13.9576 11.417 8.07867 13.3743 3.24263 16.9955C3.14343 17.0701 3.04957 17.1515 2.96173 17.2392C2.53949 17.662 2.26928 18.2128 2.19338 18.8055C2.11747 19.3981 2.24016 19.9992 2.54224 20.5147L4.9738 24.649C5.29542 25.2005 5.80317 25.6192 6.40581 25.8299C7.00845 26.0406 7.66648 26.0295 8.26167 25.7986Z" fill="white"/>
</svg>
