<svg width="195" height="192" viewBox="0 0 195 192" fill="none" xmlns="http://www.w3.org/2000/svg">
<path d="M183.859 124.138C165.163 158.436 115.83 167.315 73.672 143.98C31.5116 120.639 12.4934 73.93 31.1925 39.6383C49.8915 5.34375 104.3 -12.8482 146.455 10.4867C188.616 33.8215 202.558 89.8522 183.859 124.138Z" fill="#DEF4FA"/>
<path d="M186.167 42.3576L120.785 35.5035C115.375 34.9367 110.515 38.8759 109.946 44.284L96.4031 173.623C95.8338 179.036 99.773 183.898 105.181 184.467L170.563 191.319C175.971 191.888 180.831 187.946 181.397 182.533L194.945 53.1991C195.515 47.7911 191.573 42.9243 186.167 42.3576Z" fill="#9ADDD7"/>
<path d="M186.071 43.2519L120.688 36.3952C115.766 35.8793 111.356 39.455 110.838 44.3828L97.2924 173.714C96.7739 178.644 100.352 183.054 105.275 183.57L170.655 190.426C175.58 190.942 179.989 187.369 180.508 182.439L194.053 53.1048C194.572 48.1796 190.996 43.7678 186.071 43.2519Z" fill="#78D1C5"/>
<path d="M104.808 162.179L174.947 169.534L186.002 63.9822L115.868 56.6274L104.808 162.179Z" fill="#9ADDD7"/>
<path d="M114.798 67.1872L184.897 74.5394L186.002 63.9825L115.903 56.6328L114.798 67.1872Z" fill="white"/>
<path d="M104.856 162.113L174.955 169.46L176.037 159.109L105.941 151.759L104.856 162.113Z" fill="white"/>
<path d="M159.201 46.6653L146.941 45.3768C145.955 45.2751 145.076 45.9918 144.972 46.9779C144.867 47.9614 145.581 48.8432 146.568 48.95L158.825 50.2334C159.811 50.335 160.693 49.6209 160.797 48.6349C160.901 47.6488 160.184 46.7695 159.201 46.6653Z" fill="#9ADDD7"/>
<path d="M120.849 61.0594C120.109 60.9832 119.448 61.522 119.372 62.259C119.293 62.996 119.832 63.6593 120.569 63.7355C121.304 63.8143 121.972 63.2755 122.048 62.5385C122.124 61.799 121.586 61.1382 120.849 61.0594Z" fill="#9ADDD7"/>
<path d="M126.643 61.6669C125.903 61.5906 125.243 62.1269 125.166 62.8664C125.085 63.6034 125.624 64.2667 126.361 64.3455C127.103 64.4218 127.761 63.883 127.84 63.146C127.919 62.4039 127.382 61.7457 126.643 61.6669Z" fill="#9ADDD7"/>
<path d="M132.437 62.2767C131.703 62.1979 131.037 62.7342 130.963 63.4737C130.885 64.2107 131.421 64.874 132.155 64.9503C132.9 65.029 133.556 64.4903 133.637 63.7533C133.713 63.0163 133.18 62.3555 132.437 62.2767Z" fill="#9ADDD7"/>
<path d="M167.008 92.9162C167.425 94.5478 165.976 96.9672 166.784 98.6394C167.747 100.728 170.007 99.9787 171.946 100.388C176.386 101.465 179.006 104.723 177.145 109.079C174.79 114.376 169.814 116.414 164.505 116.038C158.413 115.573 157.338 112.683 158.52 107.26C159.295 103.776 159.013 104.538 157.112 101.953C155.409 99.3891 156.431 99.1045 156.964 95.9887C157.371 93.981 156.187 91.4422 155.889 89.4599C155.696 88.174 155.262 85.7444 157.196 85.7012C158.619 85.6681 159.427 87.2718 160.53 87.9071C162.982 89.3303 166.296 89.6378 167.008 92.9162Z" fill="#1A181A"/>
<path d="M168.685 158.019L129.344 154.179C130.442 137.812 135.365 135.771 135.365 135.771L165.254 139.767C169.613 144.664 169.643 152.123 168.685 158.019Z" fill="#EE2067"/>
<path d="M153.98 91.988C154.123 90.6512 155.322 89.683 156.657 89.8278C157.996 89.9727 158.959 91.1722 158.814 92.5115C158.669 93.8508 157.47 94.8115 156.133 94.6692C154.799 94.5218 153.833 93.3248 153.98 91.988Z" fill="#F35C6F"/>
<path d="M140.872 130.549C139.736 131.728 138.206 132.496 136.524 132.681L120.78 134.412C116.861 134.836 113.336 132.008 112.907 128.089C112.477 124.17 115.306 120.643 119.225 120.213L130.666 118.958L135.355 106.904C136.783 103.224 140.923 101.409 144.595 102.84C148.268 104.271 150.085 108.408 148.657 112.086L142.397 128.173C142.046 129.077 141.523 129.878 140.872 130.549Z" fill="#F35C6F"/>
<path d="M122.808 132.315C124.282 128.874 122.038 122.569 118.518 121.153C117.619 120.795 116.64 120.98 115.69 120.739C114.203 120.358 112.706 117.306 111.054 119.26C109.89 120.635 111.585 122.261 112.017 123.596C112.622 125.476 110.541 125.743 110.106 127.301C109.672 128.854 111.059 129.616 112.353 129.459C111.123 130.45 112.592 133.291 114.025 132.628C113.641 133.591 114.551 135.093 115.565 135.449C117.425 136.104 122.114 133.934 122.808 132.315Z" fill="#F35C6F"/>
<path d="M158.469 103.46L145.614 102.067C140.956 101.562 136.821 104.464 136.379 108.548L133.71 133.202C133.616 134.053 134.122 134.851 134.92 135.276L134.915 135.294C134.915 135.294 134.984 135.316 135.106 135.357C135.258 135.426 135.416 135.474 135.583 135.512C138.412 136.407 149.777 139.685 159.406 138.122L159.592 138.14C160.924 138.287 162.1 137.459 162.227 136.292L167.986 111.3C168.743 107.117 162.461 103.895 158.469 103.46Z" fill="white"/>
<path d="M141.375 89.8738C141.187 90.6261 140.422 91.0886 139.67 90.9005L138.989 90.7303C138.237 90.5422 137.777 89.7772 137.962 89.025L138.387 87.3197C138.572 86.5675 139.34 86.1049 140.089 86.2905L140.773 86.4607C141.523 86.6488 141.985 87.4138 141.797 88.166L141.375 89.8738Z" fill="#6657B0"/>
<path d="M159.148 104.4C157.628 105.547 155.025 106.469 151.897 106.927C151.877 106.937 151.844 106.942 151.826 106.939C148.105 107.323 146.878 105.864 146.598 105.404L146.979 101.369V101.348C147.002 101.244 147.012 101.132 147.025 101.013L147.078 100.253L147.195 98.7815L147.244 98.0547L147.564 95.8487L156.019 90.4102L159.175 104.314C159.211 104.36 159.247 104.393 159.254 104.413C159.173 104.347 158.921 104.088 159.148 104.4Z" fill="#F35C6F"/>
<path d="M158.403 89.3374L158.382 89.4213L157.6 92.6997C157.213 94.2881 156.41 95.6655 155.328 96.7481C153.274 98.8194 150.222 99.7876 147.185 99.0532L146.364 98.8575C141.726 97.7596 138.892 93.0733 140.011 88.4632L140.814 85.1137L140.816 85.0882C140.987 84.3919 141.236 83.7438 141.548 83.1466C142.123 82.0182 142.941 81.05 143.901 80.2952C144.151 80.0995 144.433 79.9165 144.712 79.7412C144.966 79.5912 145.231 79.4438 145.505 79.3167C145.759 79.2024 146.021 79.0855 146.278 78.994C146.341 78.9787 146.392 78.961 146.44 78.9432C146.674 78.8593 146.918 78.7907 147.162 78.7348L147.175 78.7246C147.198 78.7271 147.213 78.717 147.223 78.717C147.518 78.6534 147.808 78.5924 148.11 78.5518C148.351 78.5289 148.59 78.5086 148.839 78.501C149.02 78.4984 149.198 78.4908 149.388 78.4984C149.625 78.501 149.864 78.5162 150.108 78.5442C150.484 78.5823 150.86 78.6484 151.228 78.7348L152.031 78.9177C156.664 80.0258 159.511 84.7019 158.403 89.3374Z" fill="#F35C6F"/>
<path d="M145.807 91.4366C145.774 91.4417 145.746 91.4366 145.713 91.434L143.538 91.0147C143.444 90.9918 143.368 90.9308 143.327 90.8444C143.289 90.7529 143.289 90.6513 143.335 90.57L145.109 87.4466C145.185 87.2992 145.37 87.2509 145.513 87.3322C145.663 87.4136 145.708 87.5965 145.627 87.7389L144.059 90.5013L145.825 90.8546C145.99 90.8851 146.095 91.0376 146.062 91.2002C146.031 91.3298 145.932 91.4188 145.807 91.4366Z" fill="#1A181A"/>
<path d="M145.808 94.3796C144.517 94.5448 143.457 93.7595 143.442 93.7468C143.312 93.6451 143.292 93.4596 143.386 93.3274C143.485 93.2004 143.673 93.175 143.808 93.269C143.884 93.3325 145.734 94.6896 147.317 92.8624C147.429 92.7353 147.615 92.72 147.737 92.8268C147.866 92.9386 147.879 93.1216 147.767 93.2512C147.119 93.9907 146.438 94.2982 145.808 94.3796Z" fill="#1A181A"/>
<path d="M143.386 88.4787C143.355 88.4813 143.32 88.4838 143.287 88.4762C143.124 88.4381 143.022 88.278 143.063 88.1153C143.086 87.9984 143.063 87.8815 142.997 87.7799C142.936 87.6833 142.839 87.6096 142.722 87.5892C142.6 87.5613 142.484 87.5791 142.382 87.6452C142.283 87.7036 142.217 87.8129 142.186 87.9273C142.151 88.0899 141.991 88.1916 141.833 88.1509C141.67 88.1204 141.569 87.9628 141.604 87.7976C141.665 87.5206 141.828 87.2894 142.067 87.1369C142.301 86.9895 142.578 86.9437 142.852 87.0022C143.121 87.0657 143.355 87.2258 143.505 87.4596C143.655 87.6934 143.703 87.973 143.64 88.2449C143.617 88.3745 143.51 88.466 143.386 88.4787Z" fill="#1A181A"/>
<path d="M149.788 89.6911C149.755 89.6987 149.719 89.6911 149.686 89.686C149.521 89.6504 149.427 89.4878 149.46 89.3302C149.516 89.0811 149.363 88.8448 149.119 88.7889C148.873 88.7381 148.636 88.888 148.588 89.1294C148.552 89.2921 148.392 89.3937 148.23 89.3632C148.067 89.3226 147.973 89.1574 148.004 89.0024C148.128 88.4382 148.685 88.0875 149.249 88.2069C149.526 88.273 149.755 88.4356 149.904 88.6694C150.054 88.9032 150.105 89.1853 150.039 89.4624C150.014 89.5818 149.91 89.6758 149.788 89.6911Z" fill="#1A181A"/>
<path d="M147.472 99.3176C147.429 99.31 147.386 99.3049 147.34 99.2998C147.157 99.277 147.025 99.1118 147.048 98.9263C147.071 98.7407 147.267 98.6365 147.424 98.6315C147.462 98.6365 147.503 98.6416 147.541 98.6467C151.284 99.0533 153.539 96.7661 153.559 96.7407C153.691 96.606 153.905 96.606 154.037 96.733C154.171 96.8627 154.174 97.0787 154.044 97.2083C153.943 97.315 151.536 99.7548 147.472 99.3176Z" fill="#1A181A"/>
<path d="M116.808 131.252C116.795 131.268 116.777 131.28 116.757 131.293L114.139 132.818C114.03 132.882 113.893 132.843 113.834 132.739C113.771 132.632 113.809 132.495 113.913 132.434L116.536 130.907C116.64 130.843 116.777 130.881 116.838 130.988C116.889 131.075 116.876 131.184 116.808 131.252Z" fill="#1A181A"/>
<path d="M115.075 128.231C115.062 128.247 115.042 128.262 115.021 128.272L112.46 129.654C112.348 129.71 112.213 129.67 112.155 129.56C112.096 129.454 112.137 129.316 112.246 129.258L114.81 127.881C114.92 127.825 115.052 127.863 115.113 127.972C115.159 128.061 115.141 128.163 115.075 128.231Z" fill="#1A181A"/>
<path d="M132.28 114.917C130.081 118.833 130.818 122.051 132.902 124.45L136.671 128.798L136.801 107.46L132.28 114.917Z" fill="white"/>
<path d="M144.433 137.721C140.987 137.406 137.507 136.747 134.712 135.512C134.557 135.446 134.488 135.268 134.557 135.113C134.625 134.958 134.806 134.89 134.956 134.958C143.602 138.783 158.977 136.925 159.132 136.905C159.3 136.89 159.447 137.004 159.47 137.169C159.49 137.334 159.374 137.487 159.206 137.507C159.102 137.52 151.836 138.402 144.433 137.721Z" fill="#1A181A"/>
<path d="M142.649 131.705C141.401 132.48 141.792 135.129 142.224 136.254C142.992 138.267 144.031 140.092 145.787 141.436C149.67 144.422 156.906 142.509 158.54 137.838C158.649 137.52 157.358 136.115 157.145 135.848C156.184 134.638 154.568 133.39 153.917 131.99C153.348 130.762 153.808 129.311 152.278 128.62C150.87 127.99 149.648 128.704 148.26 128.971C147.343 129.146 147.33 128.704 146.598 128.503C145.749 128.272 145.294 129.047 145.409 129.781C145.52 130.546 146.024 131.144 146.588 131.626C147.495 132.399 148.196 133.421 146.687 133.911C145.536 134.292 144.885 133.799 144.435 132.701C144.222 132.175 144.021 131.634 143.335 131.563C143.058 131.538 142.829 131.588 142.649 131.705Z" fill="#F35C6F"/>
<path d="M153.757 141.728C150.55 141.38 147.879 138.872 147.452 135.53C146.954 131.619 149.721 128.04 153.633 127.547L160.83 126.63L157.93 115.443C156.944 111.628 159.231 107.73 163.046 106.741C166.863 105.75 170.757 108.042 171.748 111.859L176.678 130.897C177.196 132.884 176.828 134.996 175.679 136.694C174.53 138.389 172.706 139.512 170.673 139.772L155.432 141.711C154.863 141.784 154.304 141.787 153.757 141.728Z" fill="#F35C6F"/>
<path d="M144.547 138.803C143.553 138.696 142.933 138.252 142.887 138.219C142.788 138.145 142.768 138.005 142.842 137.909C142.913 137.81 143.053 137.787 143.154 137.858C143.218 137.906 144.74 138.986 146.877 137.896C146.987 137.84 147.121 137.883 147.177 137.993C147.236 138.102 147.19 138.236 147.081 138.292C146.105 138.791 145.236 138.879 144.547 138.803Z" fill="#1A181A"/>
<path d="M146.077 141.256C145.264 141.167 144.745 140.857 144.705 140.834C144.6 140.765 144.567 140.633 144.631 140.526C144.694 140.422 144.832 140.387 144.938 140.453C145.007 140.496 146.613 141.446 148.651 140.178C148.758 140.112 148.893 140.145 148.959 140.249C149.025 140.356 148.992 140.493 148.888 140.559C147.803 141.233 146.817 141.337 146.077 141.256Z" fill="#1A181A"/>
<path d="M147.162 78.7349L146.679 80.2292C146.679 80.2292 146.283 80.8163 145.452 81.477C144.606 82.1454 143.325 82.8875 141.548 83.1467C142.123 82.0183 142.941 81.0501 143.904 80.2978C144.151 80.097 144.433 79.9166 144.712 79.7438C144.967 79.5913 145.231 79.4439 145.505 79.3168C145.757 79.2025 146.021 79.0881 146.278 78.9966C146.341 78.9788 146.392 78.9636 146.441 78.9433C146.674 78.8594 146.918 78.7908 147.162 78.7349Z" fill="#1A181A"/>
<path d="M158.632 87.2179C158.586 83.3525 155.956 79.8581 152.029 78.9177L151.229 78.7348C150.857 78.6484 150.484 78.5823 150.108 78.5442C149.861 78.5162 149.625 78.501 149.389 78.4984C149.198 78.4908 149.02 78.4984 148.84 78.501C148.591 78.5086 148.352 78.5289 148.11 78.5518C147.808 78.5899 147.518 78.6534 147.226 78.717C147.213 78.717 147.2 78.7271 147.175 78.7246L147.162 78.7348C146.918 78.7907 146.674 78.8593 146.438 78.9432C146.392 78.961 146.341 78.9787 146.278 78.994C146.019 79.088 145.757 79.2024 145.505 79.3167C145.231 79.4438 144.967 79.5912 144.712 79.7437C144.9 80.3104 145.147 80.8949 145.452 81.4769C146.087 82.7578 146.984 84.0336 148.1 85.2255C150.301 87.5534 152.913 89.0121 155.274 89.4645L155.29 90.4328C155.29 90.4328 157.038 89.3552 158.316 90.6107L159.343 87.9702L158.632 87.2179Z" fill="#1A181A"/>
<path d="M155.068 92.0391C155.025 92.0391 154.984 92.034 154.944 92.0239C154.629 91.9552 154.428 91.6427 154.499 91.3275L155.803 85.3858C156.187 83.6424 155.81 81.838 154.746 80.3055C153.671 78.7604 152.026 77.6752 150.115 77.2559C146.179 76.3892 142.336 78.6307 141.543 82.2497L140.356 87.645C140.288 87.9602 139.973 88.1635 139.66 88.0898C139.347 88.0212 139.147 87.7086 139.218 87.3934L140.402 81.9981C141.335 77.7514 145.802 75.1109 150.364 76.1173C152.565 76.6002 154.461 77.8505 155.704 79.6397C156.957 81.4415 157.396 83.5712 156.941 85.6373L155.638 91.5791C155.577 91.851 155.335 92.0391 155.068 92.0391Z" fill="#6657B0"/>
<path d="M156.377 93.127C156.191 93.8792 155.424 94.3418 154.674 94.1563L153.991 93.986C153.241 93.7979 152.778 93.0304 152.964 92.2807L153.388 90.5729C153.576 89.8232 154.341 89.3581 155.093 89.5462L155.775 89.7165C156.524 89.902 156.989 90.6695 156.801 91.4217L156.377 93.127Z" fill="#6657B0"/>
<path d="M147.256 98.6644C146.631 98.6644 145.995 98.5983 145.36 98.456C145.169 98.4154 145.05 98.2273 145.091 98.0392C145.131 97.8486 145.319 97.7266 145.51 97.7698C149.558 98.6644 153.536 96.3416 154.359 92.5981L155.543 87.2028C155.587 87.0147 155.77 86.8978 155.963 86.9359C156.153 86.9766 156.273 87.1646 156.232 87.3552L155.045 92.7506C154.27 96.2806 150.971 98.6644 147.256 98.6644Z" fill="#6657B0"/>
<path d="M144.207 98.9975C143.653 98.9111 143.266 98.385 143.355 97.8284L143.434 97.3227C143.52 96.7636 144.047 96.3798 144.603 96.4663L145.866 96.6645C146.423 96.7509 146.809 97.277 146.723 97.8361L146.644 98.3418C146.557 98.8984 146.031 99.2821 145.472 99.1957L144.207 98.9975Z" fill="#6657B0"/>
<path d="M75.0045 19.4546L9.35536 22.8448C3.92187 23.1269 -0.266334 27.7751 0.0132194 33.2061L6.7174 163.076C6.99441 168.515 11.6426 172.705 17.0736 172.426L82.7252 169.033C88.1562 168.754 92.3444 164.105 92.0623 158.667L85.3607 28.7993C85.0836 23.3683 80.4354 19.1751 75.0045 19.4546Z" fill="#B5A6DA"/>
<path d="M75.0501 20.3489L9.39842 23.7392C4.45796 23.9958 0.653507 28.2145 0.905104 33.1601L7.60929 163.03C7.86342 167.978 12.0821 171.78 17.0277 171.526L82.6768 168.136C87.6224 167.879 91.4217 163.663 91.1701 158.715L84.466 28.8423C84.2143 23.8993 79.9956 20.0948 75.0501 20.3489Z" fill="#6657B0"/>
<path d="M13.2464 150.466L83.6708 146.829L78.2018 40.8428L7.77734 44.4795L13.2464 150.466Z" fill="#B5A6DA"/>
<path d="M8.36168 55.0745L78.7505 51.4429L78.2016 40.8428L7.81274 44.477L8.36168 55.0745Z" fill="white"/>
<path d="M13.2794 150.392L83.6708 146.756L83.132 136.364L12.7432 139.998L13.2794 150.392Z" fill="white"/>
<path d="M49.0341 27.8994L36.7262 28.5322C35.735 28.5856 34.9777 29.4293 35.0285 30.4179C35.0768 31.4065 35.9231 32.1664 36.9117 32.1181L49.2222 31.4802C50.2083 31.4294 50.9707 30.5882 50.9198 29.597C50.8716 28.6084 50.0227 27.8486 49.0341 27.8994Z" fill="#B5A6DA"/>
<path d="M13.3861 48.0834C12.644 48.1189 12.0748 48.7543 12.1129 49.4913C12.1485 50.2359 12.7864 50.8077 13.5259 50.7671C14.2654 50.7315 14.8398 50.0961 14.8017 49.3591C14.761 48.6145 14.1282 48.0452 13.3861 48.0834Z" fill="#B5A6DA"/>
<path d="M19.2059 47.7806C18.4639 47.8187 17.892 48.4516 17.9327 49.1936C17.9683 49.9332 18.6011 50.5075 19.3432 50.4694C20.0878 50.4288 20.6545 49.7959 20.619 49.0564C20.5783 48.3092 19.948 47.7425 19.2059 47.7806Z" fill="#B5A6DA"/>
<path d="M25.0258 47.4811C24.2837 47.5167 23.7119 48.152 23.7525 48.8941C23.7881 49.6362 24.4235 50.208 25.1605 50.1699C25.9051 50.1317 26.4718 49.4964 26.4362 48.7543C26.3981 48.0148 25.7704 47.4455 25.0258 47.4811Z" fill="#B5A6DA"/>
<path d="M73.2791 136.798L63.2508 137.319L59.2557 137.515L58.5085 95.8613C58.5085 95.8486 58.5085 95.8486 58.5085 95.8486V95.7495C58.5085 95.7495 66.9764 107.951 73.2791 136.798Z" fill="#DE74C0"/>
<path d="M42.6857 64.4373C44.6578 68.4197 43.1457 73.1924 39.3057 75.0959C35.4656 77.0019 30.7514 75.317 28.7792 71.3296C26.8071 67.3472 28.3167 62.5719 32.1593 60.6684C35.9968 58.7649 40.7111 60.4499 42.6857 64.4373Z" fill="#1A181A"/>
<path d="M63.2506 137.319L59.2555 137.515L23.6558 139.36C24.9493 127.708 27.1858 110.06 27.9024 102.644C28.4946 96.5807 32.4744 93.4141 37.9028 91.8232C44.978 89.7545 52.5183 90.7533 58.4957 95.7497C58.4957 95.7497 58.4957 95.7776 58.5084 95.8488C58.5084 95.8488 58.5084 95.8488 58.5084 95.8615C58.7066 97.6633 61.4487 121.753 63.2506 137.319Z" fill="#EFEF25"/>
<path d="M48.3048 86.7757L48.3099 87.4263L48.3353 88.7682L48.343 89.434C48.348 89.5357 48.3557 89.6424 48.376 89.7339C48.376 89.7339 48.4599 92.9437 48.4624 92.9462C48.4853 93.9196 47.24 94.4533 46.4776 94.5956C44.6783 94.9234 42.7977 94.4304 41.0644 94.0238C40.3325 93.851 39.6463 93.6045 38.9602 93.2995C38.9474 93.2969 38.9297 93.2868 38.917 93.2792C38.3655 93.025 37.4912 92.781 37.3133 92.1101C37.1888 91.6273 37.4734 90.7861 37.6412 90.3261C37.8521 89.7593 38.0097 89.1774 38.1901 88.5954C38.3706 88.0286 38.5459 87.4543 38.7162 86.8799C39.0516 85.7312 39.3719 84.58 39.6997 83.4313C40.0758 82.1021 40.4494 80.7806 40.8281 79.4565L48.1295 84.7808L48.3048 86.7757Z" fill="#DE74C0"/>
<path d="M50.203 89.7391L49.3287 89.9678C46.1062 90.7886 42.8202 89.8077 40.5965 87.6195C39.984 87.0172 39.4529 86.3285 39.0209 85.5585C38.6269 84.8647 38.3194 84.1277 38.1136 83.3144L37.2012 79.7412C35.9458 74.8109 38.9268 69.7841 43.8673 68.521L44.7288 68.3075C45.6768 68.0712 46.645 67.9822 47.5752 68.0381C47.6209 68.0331 47.6667 68.0407 47.7175 68.0508C49.4787 68.1805 51.1611 68.826 52.5538 69.8781C54.1701 71.0903 55.4001 72.8541 55.9389 74.9482L56.1168 75.6877L56.8385 78.5392C58.0965 83.4644 55.1282 88.4938 50.203 89.7391Z" fill="#DE74C0"/>
<path d="M50.6934 83.2992C50.7086 83.2992 50.7239 83.2967 50.7391 83.2916L53.0569 82.8062C53.156 82.7884 53.2373 82.7223 53.278 82.6308C53.3187 82.5393 53.311 82.4351 53.2602 82.3513L51.3211 79.0373C51.2347 78.8924 51.0441 78.8416 50.8993 78.928C50.7493 79.0144 50.701 79.2025 50.7874 79.3499L52.5105 82.2903L50.6121 82.6893C50.4469 82.7223 50.3376 82.8875 50.3732 83.0527C50.4037 83.2052 50.5435 83.3068 50.6934 83.2992Z" fill="#1A181A"/>
<path d="M48.4854 90.7151C48.5108 90.7126 48.5337 90.71 48.554 90.7075C48.7243 90.6948 48.8514 90.5474 48.8387 90.3771C48.8285 90.2094 48.6811 90.0823 48.5108 90.0925C48.5007 90.0925 48.4676 90.095 48.4448 90.095C46.9199 90.1916 44.0177 89.7265 42.1751 88.3745C42.0405 88.2754 41.8448 88.3034 41.7457 88.4406C41.644 88.5804 41.672 88.7735 41.8092 88.8752C43.888 90.3975 46.9707 90.8066 48.4854 90.7151Z" fill="#1A181A"/>
<path d="M48.18 70.6075C48.0402 72.6711 46.1342 75.3218 41.0591 78.3358C41.0591 78.3358 41.8723 82.6384 39.0209 85.5585C38.6269 84.8647 38.3194 84.1277 38.1136 83.3144L37.2012 79.7412C35.9458 74.8109 38.9268 69.7841 43.8673 68.521L44.7288 68.3075C45.6768 68.0712 46.645 67.9822 47.5752 68.0381C47.6209 68.0331 47.6667 68.0407 47.7175 68.0508C47.9818 68.61 48.2766 69.4893 48.18 70.6075Z" fill="#1A181A"/>
<path d="M56.1167 75.6878C51.255 74.3485 49.0948 72.3738 48.1799 70.6076C47.6869 69.6469 47.5624 68.7447 47.5751 68.0382C47.6208 68.0332 47.6666 68.0408 47.7174 68.0509C49.4786 68.1806 51.161 68.8261 52.5537 69.8782C54.17 71.0904 55.4 72.8542 55.9388 74.9483L56.1167 75.6878Z" fill="#1A181A"/>
<path d="M42.2839 82.0033C42.4822 83.4468 41.5876 84.7607 40.2864 84.9437C38.9852 85.1267 37.7653 84.1025 37.5671 82.6539C37.3689 81.2104 38.2609 79.8939 39.5621 79.7135C40.8658 79.5305 42.0857 80.5572 42.2839 82.0033Z" fill="#DE74C0"/>
<path d="M39.5804 83.2764C39.6109 83.2738 39.6465 83.2662 39.6795 83.2535L41.09 82.6639C41.1891 82.6232 41.2603 82.5343 41.2755 82.4301C41.2933 82.3233 41.2552 82.2191 41.1739 82.148L39.8422 80.9688C39.7151 80.8544 39.5194 80.8671 39.4076 80.9967C39.2932 81.1238 39.3059 81.3195 39.4356 81.4313L40.3987 82.2827L39.4406 82.6817C39.2831 82.7503 39.2094 82.9282 39.2754 83.0857C39.3263 83.2103 39.4508 83.284 39.5804 83.2764Z" fill="#1A181A"/>
<path d="M49.2909 86.4582C49.2198 86.4582 49.1486 86.4328 49.0927 86.3794C48.9783 86.2702 48.9733 86.0872 49.0825 85.9728C51.2402 83.6906 53.4563 84.9385 53.4791 84.9486C53.6164 85.03 53.6621 85.2053 53.5833 85.3426C53.5046 85.4798 53.3292 85.5281 53.192 85.4467C53.1183 85.4061 51.3368 84.4251 49.4993 86.3667C49.4434 86.4277 49.3672 86.4582 49.2909 86.4582Z" fill="#1A181A"/>
<path d="M44.9246 79.0447C44.8026 79.0447 44.6883 78.9634 44.6502 78.8414C44.6044 78.6889 44.6883 78.5288 44.8408 78.4805C47.1738 77.7562 47.5296 76.5313 47.5346 76.5211C47.5753 76.3687 47.7303 76.2772 47.8853 76.3153C48.0353 76.3559 48.1293 76.5084 48.0912 76.6609C48.076 76.7244 47.6846 78.201 45.011 79.0295C44.9805 79.0371 44.9526 79.0447 44.9246 79.0447Z" fill="#1A181A"/>
<path d="M54.2133 77.1085C51.9997 77.1085 51.2398 76.1072 51.2043 76.0589C51.1102 75.9318 51.1382 75.7514 51.2678 75.6574C51.3949 75.5659 51.5702 75.5913 51.6668 75.7158C51.6744 75.7285 52.4673 76.7298 54.9071 76.5011C55.0672 76.4935 55.2044 76.6053 55.2197 76.7629C55.2324 76.9204 55.1155 77.0602 54.9579 77.0755C54.6936 77.0983 54.4445 77.1085 54.2133 77.1085Z" fill="#1A181A"/>
<path d="M46.5615 81.7337C46.2387 81.7337 45.9261 81.6321 45.6567 81.444C45.3086 81.2 45.0798 80.8366 45.0087 80.4198C44.9807 80.2648 45.0849 80.1149 45.2425 80.0894C45.4026 80.0564 45.5475 80.1657 45.5754 80.3233C45.6212 80.5876 45.766 80.8188 45.9871 80.9713C46.2057 81.1263 46.47 81.1848 46.7394 81.1416C47.2858 81.0476 47.6517 80.5266 47.5577 79.9776C47.5323 79.8226 47.6365 79.6727 47.7915 79.6447C47.9542 79.6091 48.0965 79.7235 48.1244 79.8811C48.2718 80.7375 47.6949 81.5584 46.8359 81.7083C46.7445 81.7236 46.653 81.7337 46.5615 81.7337Z" fill="#1A181A"/>
<path d="M53.7537 80.3641C53.4894 80.3641 53.2302 80.298 52.9913 80.1659C52.6228 79.96 52.3534 79.622 52.2365 79.2129C52.1933 79.0604 52.2822 78.9003 52.4347 78.8596C52.5872 78.8139 52.7473 78.9028 52.7905 79.0553C52.8642 79.3145 53.0345 79.5305 53.2708 79.6627C53.5072 79.7923 53.7766 79.8228 54.0333 79.7491C54.5644 79.5966 54.877 79.0375 54.7271 78.5038C54.6813 78.3513 54.7728 78.1938 54.9253 78.1506C55.0752 78.1074 55.2353 78.1963 55.2785 78.3488C55.5149 79.1849 55.0269 80.0617 54.1908 80.3031C54.046 80.3438 53.9011 80.3641 53.7537 80.3641Z" fill="#1A181A"/>
<path d="M31.5268 127.873C34.1825 128.297 37.0314 127.405 39.5296 125.298L53.06 114.902C56.0817 112.579 56.651 108.246 54.3332 105.224C52.0104 102.202 47.6799 101.633 44.6581 103.953L38.8663 108.403L39.3822 101.186C39.6542 97.3813 36.8002 94.0775 32.9957 93.8107C29.1938 93.5362 25.8925 96.3978 25.6231 100.2L24.3855 117.496C24.0729 121.873 25.8595 125.469 29.1709 127.116C29.9283 127.492 30.7186 127.743 31.5268 127.873Z" fill="#DE74C0"/>
<path d="M55.4152 113.641C53.9641 114.459 52.2868 114.622 50.5332 113.544C47.5064 111.681 45.7656 107.458 45.8952 103.973C45.946 102.66 45.5877 98.4231 46.9499 97.7216C48.3426 97.0075 49.0923 98.9034 49.9335 99.5921C51.0237 100.482 51.8522 100.352 53.1178 99.6404C53.8142 99.2363 55.8879 97.7699 56.7622 98.3697C57.6796 98.9949 57.0366 101.031 56.7012 101.816C57.151 100.41 58.1396 99.1143 58.9554 100.86C59.4764 101.971 59.1002 103.442 58.625 104.456C58.9681 103.729 59.6314 104.375 59.9084 104.784C61.5578 107.234 58.4878 111.91 55.4152 113.641Z" fill="#DE74C0"/>
<path d="M55.2678 103.252C55.1763 103.252 55.0848 103.206 55.0289 103.124C54.9399 102.995 54.9755 102.814 55.1051 102.725C56.203 101.983 56.8739 100.578 56.8815 100.565C56.9502 100.42 57.1204 100.359 57.2653 100.428C57.4076 100.494 57.4686 100.664 57.4 100.809C57.372 100.873 56.6554 102.372 55.4279 103.203C55.3796 103.236 55.3237 103.252 55.2678 103.252Z" fill="#1A181A"/>
<path d="M56.9884 106.604C56.897 106.604 56.8055 106.558 56.7496 106.474C56.6631 106.344 56.6962 106.164 56.8283 106.078C57.9186 105.338 58.5971 103.928 58.6022 103.915C58.6708 103.77 58.8411 103.709 58.986 103.778C59.1283 103.844 59.1893 104.017 59.1232 104.159C59.0927 104.222 58.3735 105.724 57.1511 106.553C57.1003 106.586 57.0444 106.604 56.9884 106.604Z" fill="#1A181A"/>
</svg>
