<svg width="15" height="17" viewBox="0 0 15 17" fill="none" xmlns="http://www.w3.org/2000/svg">
<path d="M10.0566 2.96387C10.563 2.34961 10.9199 1.51123 10.9199 0.664551C10.9199 0.54834 10.9116 0.432129 10.895 0.34082C10.0649 0.374023 9.06885 0.888672 8.47949 1.58594C8.00635 2.11719 7.57471 2.96387 7.57471 3.81055C7.57471 3.94336 7.59961 4.06787 7.60791 4.10938C7.65771 4.11768 7.74072 4.13428 7.83203 4.13428C8.5708 4.13428 9.50049 3.63623 10.0566 2.96387ZM10.6377 4.30859C9.40088 4.30859 8.38818 5.06396 7.74072 5.06396C7.05176 5.06396 6.15527 4.3584 5.07617 4.3584C3.02588 4.3584 0.950684 6.05176 0.950684 9.23926C0.950684 11.2314 1.71436 13.3315 2.66895 14.6846C3.48242 15.8301 4.19629 16.7681 5.22559 16.7681C6.23828 16.7681 6.68652 16.0957 7.94824 16.0957C9.22656 16.0957 9.51709 16.7515 10.6377 16.7515C11.75 16.7515 12.4888 15.7305 13.1943 14.7261C13.9746 13.5723 14.3066 12.4517 14.3149 12.3936C14.2485 12.377 12.1235 11.5054 12.1235 9.07324C12.1235 6.96484 13.792 6.01855 13.8916 5.94385C12.7876 4.3584 11.1025 4.30859 10.6377 4.30859Z" fill="white"/>
</svg>
