<svg width="29" height="30" viewBox="0 0 29 30" fill="none" xmlns="http://www.w3.org/2000/svg">
<path d="M0 10.0995C0 6.7392 0 5.05904 0.653961 3.77557C1.2292 2.6466 2.14708 1.72871 3.27606 1.15347C4.55953 0.499512 6.23969 0.499512 9.6 0.499512H19.4C22.7603 0.499512 24.4405 0.499512 25.7239 1.15347C26.8529 1.72871 27.7708 2.6466 28.346 3.77557C29 5.05904 29 6.7392 29 10.0995V19.8995C29 23.2598 29 24.94 28.346 26.2235C27.7708 27.3524 26.8529 28.2703 25.7239 28.8456C24.4405 29.4995 22.7603 29.4995 19.4 29.4995H9.6C6.23969 29.4995 4.55953 29.4995 3.27606 28.8456C2.14708 28.2703 1.2292 27.3524 0.653961 26.2235C0 24.94 0 23.2598 0 19.8995V10.0995Z" fill="#007AFF"/>
<path d="M9.94287 23.1597H19.0488C20.6841 23.1597 21.5557 22.313 21.5557 20.686V12.4185C22.3608 12.2856 22.7925 11.6797 22.7925 10.7915V9.52979C22.7925 8.51709 22.2363 7.87793 21.2153 7.87793H7.77637C6.80518 7.87793 6.19922 8.51709 6.19922 9.52979V10.7915C6.19922 11.6797 6.63086 12.2856 7.43604 12.4185V20.686C7.43604 22.3213 8.30762 23.1597 9.94287 23.1597ZM8.1167 11.1899C7.70166 11.1899 7.53564 11.0156 7.53564 10.6006V9.7207C7.53564 9.30566 7.70166 9.13135 8.1167 9.13135H20.8833C21.2983 9.13135 21.4561 9.30566 21.4561 9.7207V10.6006C21.4561 11.0156 21.2983 11.1899 20.8833 11.1899H8.1167ZM9.92627 21.9062C9.1792 21.9062 8.77246 21.4995 8.77246 20.7524V12.4434H20.2192V20.7524C20.2192 21.4995 19.8042 21.9062 19.0654 21.9062H9.92627ZM11.7607 15.7886H17.2393C17.5879 15.7886 17.8369 15.5479 17.8369 15.1826V14.917C17.8369 14.5518 17.5879 14.3193 17.2393 14.3193H11.7607C11.4121 14.3193 11.1714 14.5518 11.1714 14.917V15.1826C11.1714 15.5479 11.4121 15.7886 11.7607 15.7886Z" fill="white"/>
</svg>
