<svg width="12" height="20" viewBox="0 0 12 20" fill="none" xmlns="http://www.w3.org/2000/svg">
<path d="M0.610352 10.0068C0.610352 10.3887 0.751465 10.7041 1.05859 11.0029L9.37598 19.0547C9.6167 19.2954 9.91553 19.4199 10.2559 19.4199C10.9614 19.4199 11.5176 18.8638 11.5176 18.1665C11.5176 17.8096 11.3765 17.5024 11.1274 17.2534L3.60693 9.99854L11.1274 2.75195C11.3765 2.51123 11.5176 2.1875 11.5176 1.84717C11.5176 1.1499 10.9614 0.59375 10.2559 0.59375C9.90723 0.59375 9.6167 0.709961 9.37598 0.950684L1.05859 9.01074C0.751465 9.30957 0.610352 9.6167 0.610352 10.0068Z" fill="#007AFF"/>
</svg>
