<?xml version="1.0"?>
<svg xmlns="http://www.w3.org/2000/svg" viewBox="0 0 80 80">
    <path style="line-height:normal;text-indent:0;text-align:start;text-decoration-line:none;text-decoration-style:solid;text-decoration-color:#000;text-transform:none;block-progression:tb;isolation:auto;mix-blend-mode:normal" d="M 10 16 C 7.2504839 16 5 18.250484 5 21 L 5 59 C 5 61.749516 7.2504839 64 10 64 L 52 64 C 54.749516 64 57 61.749516 57 59 L 57 50.748047 L 72.728516 60 L 73 60 L 75 60 L 75 20 L 72.728516 20 L 57 29.251953 L 57 21 C 57 18.250484 54.749516 16 52 16 L 10 16 z M 10 18 L 52 18 C 53.668484 18 55 19.331516 55 21 L 55 30.427734 L 55 49.572266 L 55 59 C 55 60.668484 53.668484 62 52 62 L 10 62 C 8.3315161 62 7 60.668484 7 59 L 7 21 C 7 19.331516 8.3315161 18 10 18 z M 73 22.160156 L 73 57.839844 L 57 48.427734 L 57 31.572266 L 73 22.160156 z M 11 57 A 1 1 0 0 0 10 58 A 1 1 0 0 0 11 59 A 1 1 0 0 0 12 58 A 1 1 0 0 0 11 57 z M 15 57 A 1 1 0 0 0 14 58 A 1 1 0 0 0 15 59 A 1 1 0 0 0 16 58 A 1 1 0 0 0 15 57 z M 19 57 A 1 1 0 0 0 18 58 A 1 1 0 0 0 19 59 A 1 1 0 0 0 20 58 A 1 1 0 0 0 19 57 z M 23 57 A 1 1 0 0 0 22 58 A 1 1 0 0 0 23 59 A 1 1 0 0 0 24 58 A 1 1 0 0 0 23 57 z M 27 57 A 1 1 0 0 0 26 58 A 1 1 0 0 0 27 59 A 1 1 0 0 0 28 58 A 1 1 0 0 0 27 57 z M 31 57 A 1 1 0 0 0 30 58 A 1 1 0 0 0 31 59 A 1 1 0 0 0 32 58 A 1 1 0 0 0 31 57 z M 35 57 A 1 1 0 0 0 34 58 A 1 1 0 0 0 35 59 A 1 1 0 0 0 36 58 A 1 1 0 0 0 35 57 z M 39 57 A 1 1 0 0 0 38 58 A 1 1 0 0 0 39 59 A 1 1 0 0 0 40 58 A 1 1 0 0 0 39 57 z M 43 57 A 1 1 0 0 0 42 58 A 1 1 0 0 0 43 59 A 1 1 0 0 0 44 58 A 1 1 0 0 0 43 57 z M 47 57 A 1 1 0 0 0 46 58 A 1 1 0 0 0 47 59 A 1 1 0 0 0 48 58 A 1 1 0 0 0 47 57 z M 51 57 A 1 1 0 0 0 50 58 A 1 1 0 0 0 51 59 A 1 1 0 0 0 52 58 A 1 1 0 0 0 51 57 z"/>
</svg>
