<svg width="31" height="30" viewBox="0 0 31 30" fill="none" xmlns="http://www.w3.org/2000/svg">
<path d="M2.91821 10.4856H28.0549C28.6189 10.4856 29.0754 10.0425 29.0754 9.47852C29.0754 8.91455 28.6189 8.45801 28.0549 8.45801H2.91821C2.35425 8.45801 1.91113 8.91455 1.91113 9.47852C1.91113 10.0425 2.35425 10.4856 2.91821 10.4856ZM2.91821 16.3401H28.0549C28.6189 16.3401 29.0754 15.897 29.0754 15.333C29.0754 14.7556 28.6189 14.2991 28.0549 14.2991H2.91821C2.35425 14.2991 1.91113 14.7556 1.91113 15.333C1.91113 15.897 2.35425 16.3401 2.91821 16.3401ZM2.91821 22.208H28.0549C28.6189 22.208 29.0754 21.7515 29.0754 21.1741C29.0754 20.6101 28.6189 20.167 28.0549 20.167H2.91821C2.35425 20.167 1.91113 20.6101 1.91113 21.1741C1.91113 21.7515 2.35425 22.208 2.91821 22.208Z" fill="#979798"/>
</svg>
