<svg width="31" height="30" viewBox="0 0 31 30" fill="none" xmlns="http://www.w3.org/2000/svg">
<path d="M6.32886 27.6865H24.6711C27.4775 27.6865 28.874 26.29 28.874 23.5239V7.12866C28.874 4.36255 27.4775 2.96606 24.6711 2.96606H6.32886C3.52246 2.96606 2.11255 4.34912 2.11255 7.12866V23.5239C2.11255 26.3035 3.52246 27.6865 6.32886 27.6865ZM6.12744 25.5247C4.93237 25.5247 4.27441 24.8936 4.27441 23.6448V10.9824C4.27441 9.74707 4.93237 9.10254 6.12744 9.10254H24.8457C26.0408 9.10254 26.7122 9.74707 26.7122 10.9824V23.6448C26.7122 24.8936 26.0408 25.5247 24.8457 25.5247H6.12744ZM12.8682 13.9231H13.6604C14.1304 13.9231 14.2915 13.7888 14.2915 13.3188V12.5266C14.2915 12.0566 14.1304 11.9089 13.6604 11.9089H12.8682C12.3982 11.9089 12.2371 12.0566 12.2371 12.5266V13.3188C12.2371 13.7888 12.3982 13.9231 12.8682 13.9231ZM17.3396 13.9231H18.1184C18.5884 13.9231 18.7495 13.7888 18.7495 13.3188V12.5266C18.7495 12.0566 18.5884 11.9089 18.1184 11.9089H17.3396C16.8562 11.9089 16.7085 12.0566 16.7085 12.5266V13.3188C16.7085 13.7888 16.8562 13.9231 17.3396 13.9231ZM21.7976 13.9231H22.5898C23.0598 13.9231 23.2075 13.7888 23.2075 13.3188V12.5266C23.2075 12.0566 23.0598 11.9089 22.5898 11.9089H21.7976C21.3276 11.9089 21.1665 12.0566 21.1665 12.5266V13.3188C21.1665 13.7888 21.3276 13.9231 21.7976 13.9231ZM8.41016 18.314H9.20239C9.67236 18.314 9.82007 18.1797 9.82007 17.7097V16.9175C9.82007 16.4475 9.67236 16.3132 9.20239 16.3132H8.41016C7.94019 16.3132 7.77905 16.4475 7.77905 16.9175V17.7097C7.77905 18.1797 7.94019 18.314 8.41016 18.314ZM12.8682 18.314H13.6604C14.1304 18.314 14.2915 18.1797 14.2915 17.7097V16.9175C14.2915 16.4475 14.1304 16.3132 13.6604 16.3132H12.8682C12.3982 16.3132 12.2371 16.4475 12.2371 16.9175V17.7097C12.2371 18.1797 12.3982 18.314 12.8682 18.314ZM17.3396 18.314H18.1184C18.5884 18.314 18.7495 18.1797 18.7495 17.7097V16.9175C18.7495 16.4475 18.5884 16.3132 18.1184 16.3132H17.3396C16.8562 16.3132 16.7085 16.4475 16.7085 16.9175V17.7097C16.7085 18.1797 16.8562 18.314 17.3396 18.314ZM21.7976 18.314H22.5898C23.0598 18.314 23.2075 18.1797 23.2075 17.7097V16.9175C23.2075 16.4475 23.0598 16.3132 22.5898 16.3132H21.7976C21.3276 16.3132 21.1665 16.4475 21.1665 16.9175V17.7097C21.1665 18.1797 21.3276 18.314 21.7976 18.314ZM8.41016 22.7183H9.20239C9.67236 22.7183 9.82007 22.5706 9.82007 22.1006V21.3083C9.82007 20.8384 9.67236 20.7041 9.20239 20.7041H8.41016C7.94019 20.7041 7.77905 20.8384 7.77905 21.3083V22.1006C7.77905 22.5706 7.94019 22.7183 8.41016 22.7183ZM12.8682 22.7183H13.6604C14.1304 22.7183 14.2915 22.5706 14.2915 22.1006V21.3083C14.2915 20.8384 14.1304 20.7041 13.6604 20.7041H12.8682C12.3982 20.7041 12.2371 20.8384 12.2371 21.3083V22.1006C12.2371 22.5706 12.3982 22.7183 12.8682 22.7183ZM17.3396 22.7183H18.1184C18.5884 22.7183 18.7495 22.5706 18.7495 22.1006V21.3083C18.7495 20.8384 18.5884 20.7041 18.1184 20.7041H17.3396C16.8562 20.7041 16.7085 20.8384 16.7085 21.3083V22.1006C16.7085 22.5706 16.8562 22.7183 17.3396 22.7183Z" fill="#979798"/>
</svg>
