<svg width="31" height="30" viewBox="0 0 31 30" fill="none" xmlns="http://www.w3.org/2000/svg">
<path d="M6.10059 29.4993C7.91333 29.4993 11.6194 27.6731 14.3452 25.7395C23.7043 25.9946 30.7271 20.6101 30.7271 13.574C30.7271 6.81982 23.9595 1.36816 15.5 1.36816C7.04053 1.36816 0.272949 6.81982 0.272949 13.574C0.272949 17.9783 3.09277 21.8857 7.33594 23.8462C6.73169 25.0278 5.60376 26.6123 4.99951 27.4045C4.28784 28.3311 4.71753 29.4993 6.10059 29.4993ZM7.5105 27.2703C7.40308 27.3105 7.36279 27.23 7.42993 27.1494C8.18188 26.2229 9.2561 24.8264 9.71265 23.9536C10.0886 23.2688 9.99463 22.6511 9.13525 22.2483C4.91895 20.2878 2.50195 17.1592 2.50195 13.574C2.50195 8.08203 8.26245 3.59717 15.5 3.59717C22.751 3.59717 28.5115 8.08203 28.5115 13.574C28.5115 19.0793 22.751 23.5642 15.5 23.5642C15.2314 23.5642 14.8152 23.5508 14.2781 23.5374C13.7141 23.5239 13.2844 23.7119 12.7742 24.1147C11.1226 25.3098 8.73242 26.7734 7.5105 27.2703Z" fill="#979798"/>
</svg>
