<svg width="24" height="24" viewBox="0 0 24 24" fill="none" xmlns="http://www.w3.org/2000/svg">
<path d="M3.07422 20.9531H20.9258C22.957 20.9531 23.9922 19.9375 23.9922 17.9258V7.70117C23.9922 5.68945 22.957 4.68359 20.9258 4.68359H18.1328C17.3613 4.68359 17.127 4.52734 16.6875 4.03906L15.9062 3.16016C15.418 2.62305 14.9199 2.33008 13.9141 2.33008H10.0176C9.01172 2.33008 8.51367 2.62305 8.02539 3.16016L7.24414 4.03906C6.80469 4.51758 6.56055 4.68359 5.79883 4.68359H3.07422C1.0332 4.68359 0.0078125 5.68945 0.0078125 7.70117V17.9258C0.0078125 19.9375 1.0332 20.9531 3.07422 20.9531ZM3.09375 19.3809C2.13672 19.3809 1.58008 18.8633 1.58008 17.8477V7.78906C1.58008 6.77344 2.13672 6.25586 3.09375 6.25586H6.18945C7.06836 6.25586 7.54688 6.08984 8.03516 5.54297L8.79688 4.68359C9.35352 4.05859 9.64648 3.90234 10.5059 3.90234H13.4258C14.2852 3.90234 14.5781 4.05859 15.1348 4.68359L15.8965 5.54297C16.3848 6.08984 16.8633 6.25586 17.7422 6.25586H20.8965C21.8633 6.25586 22.4199 6.77344 22.4199 7.78906V17.8477C22.4199 18.8633 21.8633 19.3809 20.8965 19.3809H3.09375ZM12 17.9746C14.9492 17.9746 17.3223 15.6113 17.3223 12.6328C17.3223 9.66406 14.959 7.30078 12 7.30078C9.04102 7.30078 6.66797 9.66406 6.66797 12.6328C6.66797 15.6113 9.04102 17.9746 12 17.9746ZM17.7227 9.03906C17.7227 9.72266 18.2891 10.2598 18.9531 10.2598C19.6074 10.25 20.1641 9.71289 20.1641 9.03906C20.1641 8.39453 19.6074 7.82812 18.9531 7.82812C18.2891 7.82812 17.7227 8.39453 17.7227 9.03906ZM12 16.4902C9.88086 16.4902 8.14258 14.7812 8.14258 12.6328C8.14258 10.4941 9.87109 8.77539 12 8.77539C14.1289 8.77539 15.8477 10.4941 15.8477 12.6328C15.8477 14.7812 14.1289 16.4902 12 16.4902Z" fill="#007AFF"/>
</svg>
