<svg width="48" height="48" viewBox="0 0 48 48" fill="none" xmlns="http://www.w3.org/2000/svg">
<path d="M0 19.201C0 12.4803 0 9.12003 1.30792 6.55309C2.4584 4.29515 4.29417 2.45938 6.55211 1.3089C9.11905 0.000976562 12.4794 0.000976562 19.2 0.000976562H28.8C35.5206 0.000976562 38.8809 0.000976562 41.4479 1.3089C43.7058 2.45938 45.5416 4.29515 46.6921 6.55309C48 9.12003 48 12.4803 48 19.201V28.801C48 35.5216 48 38.8819 46.6921 41.4489C45.5416 43.7068 43.7058 45.5426 41.4479 46.6931C38.8809 48.001 35.5206 48.001 28.8 48.001H19.2C12.4794 48.001 9.11905 48.001 6.55211 46.6931C4.29417 45.5426 2.4584 43.7068 1.30792 41.4489C0 38.8819 0 35.5216 0 28.801V19.201Z" fill="#FF2D55"/>
<path d="M15.8252 36.0508C16.3945 36.0508 16.7812 35.8574 17.4688 35.2559L21.0674 32.0332C21.8408 32.8818 23.0117 33.333 24.5049 33.333H28.2109L31.7988 36.4053C32.4541 36.9639 32.8086 37.2539 33.3242 37.2539C34.0654 37.2539 34.4844 36.7275 34.4844 35.9111V33.333H34.9355C37.6318 33.333 39.4258 31.7109 39.4258 28.8965V22.5479C39.4258 19.7334 37.6318 18.1113 34.9355 18.1113H33.249V17.2949C33.249 14.373 31.5195 12.6865 28.5977 12.6865H13.2256C10.4219 12.6865 8.57422 14.373 8.57422 17.2949V27.1885C8.57422 30.1104 10.4219 31.7969 13.2256 31.7969H14.6436V34.7295C14.6436 35.5566 15.0625 36.0508 15.8252 36.0508ZM16.2656 31.0771C16.2656 30.4648 15.9004 30.1748 15.4277 30.1748H13.333C11.4316 30.1748 10.3037 29.1436 10.3037 27.1348V17.3486C10.3037 15.3506 11.4316 14.2979 13.333 14.2979H28.4902C30.3916 14.2979 31.5195 15.3506 31.5195 17.3486V18.1113H24.5049C21.6904 18.1113 20.0254 19.7334 20.0254 22.5479V28.8965C20.0254 29.4766 20.0898 30.0029 20.2295 30.4863L16.2656 34.1387V31.0771ZM32.873 35.3096L29.4248 32.2158C28.9951 31.8398 28.7373 31.7217 28.1465 31.7217H24.6123C22.8184 31.7217 21.7441 30.7441 21.7441 28.8428L21.7549 22.6016C21.7549 20.7109 22.8184 19.7227 24.6123 19.7227H34.8389C36.6221 19.7227 37.6963 20.7109 37.6963 22.6016V28.8428C37.6963 30.7441 36.6221 31.7217 34.8389 31.7217H33.7002C33.2383 31.7217 32.873 31.9902 32.873 32.6025V35.3096Z" fill="white"/>
</svg>
