<svg width="18" height="18" viewBox="0 0 18 18" fill="none" xmlns="http://www.w3.org/2000/svg">
<path d="M6.94922 17.5718C7.36914 17.5718 7.70117 17.3862 7.93555 17.0249L17.1641 2.49365C17.3398 2.21045 17.4082 1.99561 17.4082 1.771C17.4082 1.23389 17.0566 0.882324 16.5195 0.882324C16.1289 0.882324 15.9141 1.00928 15.6797 1.38037L6.91016 15.355L2.35938 9.39795C2.11523 9.05615 1.87109 8.91943 1.51953 8.91943C0.962891 8.91943 0.582031 9.30029 0.582031 9.8374C0.582031 10.062 0.679688 10.3159 0.865234 10.5503L5.93359 17.0054C6.22656 17.3862 6.5293 17.5718 6.94922 17.5718Z" fill="#007AFF"/>
</svg>
