<svg width="29" height="30" viewBox="0 0 29 30" fill="none" xmlns="http://www.w3.org/2000/svg">
<path d="M0 6.90195C0 4.66174 0 3.54164 0.435974 2.68599C0.819467 1.93334 1.43139 1.32142 2.18404 0.937927C3.03969 0.501953 4.15979 0.501953 6.4 0.501953H22.6C24.8402 0.501953 25.9603 0.501953 26.816 0.937927C27.5686 1.32142 28.1805 1.93334 28.564 2.68599C29 3.54164 29 4.66174 29 6.90195V23.102C29 25.3422 29 26.4623 28.564 27.3179C28.1805 28.0706 27.5686 28.6825 26.816 29.066C25.9603 29.502 24.8402 29.502 22.6 29.502H6.4C4.15979 29.502 3.03969 29.502 2.18404 29.066C1.43139 28.6825 0.819467 28.0706 0.435974 27.3179C0 26.4623 0 25.3422 0 23.102V6.90195Z" fill="#5856D6"/>
<path d="M14.5 22.8301C18.8594 22.8301 22.4688 19.2129 22.4688 14.8613C22.4688 10.502 18.8516 6.89258 14.4922 6.89258C10.1406 6.89258 6.53125 10.502 6.53125 14.8613C6.53125 19.2129 10.1484 22.8301 14.5 22.8301ZM14.5 21.502C10.8125 21.502 7.86719 18.5488 7.86719 14.8613C7.86719 11.1738 10.8047 8.2207 14.4922 8.2207C18.1797 8.2207 21.1328 11.1738 21.1406 14.8613C21.1484 18.5488 18.1875 21.502 14.5 21.502ZM14.5 19.8145C17.2109 19.8145 19.4531 17.5645 19.4531 14.8613C19.4531 12.1504 17.2031 9.90039 14.5 9.90039C11.7891 9.90039 9.54688 12.1504 9.54688 14.8613C9.54688 17.5645 11.7969 19.8145 14.5 19.8145ZM14.5 18.5566C12.4922 18.5566 10.8047 16.8691 10.8047 14.8613C10.8047 12.8379 12.4844 11.1582 14.5 11.1582C16.5078 11.1582 18.1953 12.8457 18.1953 14.8613C18.1953 16.877 16.5156 18.5566 14.5 18.5566ZM14.5078 16.8848C15.6172 16.8848 16.5312 15.9785 16.5312 14.8535C16.5312 13.7441 15.6172 12.8379 14.5078 12.8379C13.3906 12.8379 12.4766 13.7441 12.4766 14.8535C12.4766 15.9785 13.3906 16.8848 14.5078 16.8848Z" fill="white"/>
</svg>
