<svg width="29" height="30" viewBox="0 0 29 30" fill="none" xmlns="http://www.w3.org/2000/svg">
<path d="M0 6.90049C0 4.66028 0 3.54017 0.435974 2.68453C0.819467 1.93188 1.43139 1.31996 2.18404 0.936462C3.03969 0.500488 4.15979 0.500488 6.4 0.500488H22.6C24.8402 0.500488 25.9603 0.500488 26.816 0.936462C27.5686 1.31996 28.1805 1.93188 28.564 2.68453C29 3.54017 29 4.66028 29 6.90049V23.1005C29 25.3407 29 26.4608 28.564 27.3165C28.1805 28.0691 27.5686 28.681 26.816 29.0645C25.9603 29.5005 24.8402 29.5005 22.6 29.5005H6.4C4.15979 29.5005 3.03969 29.5005 2.18404 29.0645C1.43139 28.681 0.819467 28.0691 0.435974 27.3165C0 26.4608 0 25.3407 0 23.1005V6.90049Z" fill="#FF9500"/>
<path d="M8.83057 23.1606H20.1694C21.9043 23.1606 22.7676 22.2974 22.7676 20.5874V10.4521C22.7676 8.74219 21.9043 7.87891 20.1694 7.87891H8.83057C7.0957 7.87891 6.22412 8.73389 6.22412 10.4521V20.5874C6.22412 22.3057 7.0957 23.1606 8.83057 23.1606ZM8.70605 21.8242C7.96729 21.8242 7.56055 21.4341 7.56055 20.6621V12.8345C7.56055 12.0708 7.96729 11.6724 8.70605 11.6724H20.2773C21.0161 11.6724 21.4312 12.0708 21.4312 12.8345V20.6621C21.4312 21.4341 21.0161 21.8242 20.2773 21.8242H8.70605ZM10.1421 14.7603H18.8579C19.1567 14.7603 19.3726 14.5278 19.3726 14.2373C19.3726 13.9551 19.1567 13.7393 18.8579 13.7393H10.1421C9.84326 13.7393 9.61914 13.9551 9.61914 14.2373C9.61914 14.5278 9.84326 14.7603 10.1421 14.7603ZM10.1421 17.2588H18.8579C19.1567 17.2588 19.3726 17.043 19.3726 16.7607C19.3726 16.4619 19.1567 16.2378 18.8579 16.2378H10.1421C9.84326 16.2378 9.61914 16.4619 9.61914 16.7607C9.61914 17.043 9.84326 17.2588 10.1421 17.2588ZM10.1421 19.7573H15.6787C15.9775 19.7573 16.1934 19.5415 16.1934 19.2593C16.1934 18.9688 15.9775 18.7363 15.6787 18.7363H10.1421C9.84326 18.7363 9.61914 18.9688 9.61914 19.2593C9.61914 19.5415 9.84326 19.7573 10.1421 19.7573Z" fill="white"/>
</svg>
