<svg width="32" height="33" viewBox="0 0 32 33" fill="none" xmlns="http://www.w3.org/2000/svg">
<path d="M8.07275 16.8405H23.9189C24.3589 16.8405 24.7324 16.4669 24.7324 16.027C24.7324 15.5787 24.3589 15.2135 23.9189 15.2135H8.07275C7.63281 15.2135 7.25928 15.5787 7.25928 16.027C7.25928 16.4669 7.63281 16.8405 8.07275 16.8405Z" fill="#3C3C43" fill-opacity="0.6"/>
<path d="M16 31.0035C7.71573 31.0035 1 24.2878 1 16.0035H-1C-1 25.3924 6.61116 33.0035 16 33.0035V31.0035ZM31 16.0035C31 24.2878 24.2843 31.0035 16 31.0035V33.0035C25.3888 33.0035 33 25.3924 33 16.0035H31ZM16 1.00354C24.2843 1.00354 31 7.71927 31 16.0035H33C33 6.6147 25.3888 -0.99646 16 -0.99646V1.00354ZM16 -0.99646C6.61116 -0.99646 -1 6.6147 -1 16.0035H1C1 7.71927 7.71573 1.00354 16 1.00354V-0.99646Z" fill="#3C3C43" fill-opacity="0.33"/>
</svg>
