<svg width="63" height="56" viewBox="0 0 63 56" fill="none" xmlns="http://www.w3.org/2000/svg">
<path d="M8.94141 55.5332H54.0293C59.0098 55.5332 62.1152 51.959 62.1152 47.4473C62.1152 46.0996 61.7637 44.7227 61.0312 43.4629L38.4434 4.11719C36.9199 1.45117 34.2246 0.015625 31.5 0.015625C28.7461 0.015625 26.0508 1.45117 24.5273 4.11719L1.93945 43.4922C1.20703 44.752 0.855469 46.0996 0.855469 47.4473C0.855469 51.959 3.96094 55.5332 8.94141 55.5332ZM8.9707 50.9336C6.94922 50.9336 5.60156 49.2637 5.60156 47.4473C5.60156 46.9199 5.68945 46.3047 5.98242 45.6895L28.541 6.34375C29.1855 5.23047 30.3574 4.70312 31.5 4.70312C32.6426 4.70312 33.7559 5.20117 34.4004 6.34375L56.9297 45.7188C57.252 46.3047 57.3984 46.9199 57.3984 47.4473C57.3984 49.2637 55.9922 50.9336 53.9707 50.9336H8.9707ZM31.5 35.7871C32.9062 35.7871 33.6973 34.9668 33.7266 33.4434L34.166 18.0039C34.1953 16.5098 33.0234 15.3965 31.4707 15.3965C29.8887 15.3965 28.7754 16.4805 28.8047 17.9746L29.1855 33.4434C29.2148 34.9375 30.0352 35.7871 31.5 35.7871ZM31.5 45.3086C33.1699 45.3086 34.6641 43.9609 34.6641 42.2617C34.6641 40.5332 33.1992 39.2148 31.5 39.2148C29.7715 39.2148 28.3359 40.5625 28.3359 42.2617C28.3359 43.9316 29.8008 45.3086 31.5 45.3086Z" fill="#FF3B30"/>
</svg>
