<svg width="24" height="24" viewBox="0 0 24 24" fill="none" xmlns="http://www.w3.org/2000/svg">
<path d="M6.81445 22.418H17.1855C19.207 22.418 20.2129 21.3926 20.2129 19.3613V10.4941C20.2129 9.23438 20.0664 8.6875 19.2852 7.88672L13.9043 2.4082C13.1621 1.64648 12.5469 1.48047 11.4531 1.48047H6.81445C4.80273 1.48047 3.78711 2.51562 3.78711 4.54688V19.3613C3.78711 21.4023 4.79297 22.418 6.81445 22.418ZM6.88281 20.8457C5.87695 20.8457 5.35938 20.3086 5.35938 19.332V4.57617C5.35938 3.60938 5.87695 3.05273 6.89258 3.05273H11.2383V8.72656C11.2383 9.95703 11.8535 10.5625 13.0742 10.5625H18.6406V19.332C18.6406 20.3086 18.123 20.8457 17.1074 20.8457H6.88281ZM13.25 9.08789C12.8594 9.08789 12.7129 8.93164 12.7129 8.54102V3.35547L18.3379 9.08789H13.25Z" fill="#007AFF"/>
</svg>
