<svg width="20" height="24" viewBox="0 0 20 24" fill="none" xmlns="http://www.w3.org/2000/svg">
<path d="M4.2959 23.7598H15.7041C17.9277 23.7598 19.0342 22.6318 19.0342 20.3975V10.6436C19.0342 9.25781 18.873 8.65625 18.0137 7.77539L12.0947 1.74902C11.2783 0.911133 10.6016 0.728516 9.39844 0.728516H4.2959C2.08301 0.728516 0.96582 1.86719 0.96582 4.10156V20.3975C0.96582 22.6426 2.07227 23.7598 4.2959 23.7598ZM4.37109 22.0303C3.26465 22.0303 2.69531 21.4395 2.69531 20.3652V4.13379C2.69531 3.07031 3.26465 2.45801 4.38184 2.45801H9.16211V8.69922C9.16211 10.0527 9.83887 10.7188 11.1816 10.7188H17.3047V20.3652C17.3047 21.4395 16.7354 22.0303 15.6182 22.0303H4.37109ZM11.375 9.09668C10.9453 9.09668 10.7842 8.9248 10.7842 8.49512V2.79102L16.9717 9.09668H11.375ZM10.8164 12.749C10.8164 12.3086 10.4404 11.9541 10 11.9541C9.55957 11.9541 9.18359 12.3086 9.18359 12.749V16.6484L9.24805 18.3994L8.33496 17.4541L7.36816 16.4658C7.21777 16.3047 6.99219 16.2188 6.78809 16.2188C6.34766 16.2188 6.03613 16.5303 6.03613 16.96C6.03613 17.207 6.13281 17.3896 6.30469 17.54L9.39844 20.3867C9.62402 20.5908 9.7959 20.666 10 20.666C10.2041 20.666 10.376 20.5908 10.6016 20.3867L13.6953 17.54C13.8672 17.3896 13.9639 17.207 13.9639 16.96C13.9639 16.5303 13.6416 16.2188 13.2119 16.2188C12.9971 16.2188 12.7822 16.3047 12.6318 16.4658L11.665 17.4541L10.752 18.3994L10.8164 16.6484V12.749Z" fill="#007AFF"/>
</svg>
