<svg width="25" height="24" viewBox="0 0 25 24" fill="none" xmlns="http://www.w3.org/2000/svg">
<rect x="0.5" width="24" height="24" rx="12" fill="#EA4335"/>
<path d="M4.50501 12.0103C4.34512 7.80045 8.03255 3.91006 12.2466 3.85959C14.3944 3.6764 16.484 4.51045 18.1094 5.87078C17.4426 6.60389 16.7642 7.32853 16.0396 8.00693C14.6087 7.13758 12.8858 6.47506 11.2135 7.06345C8.51611 7.83151 6.88259 11.0163 7.88078 13.6551C8.70742 16.411 12.0595 17.9235 14.6867 16.7658C16.047 16.2787 16.9439 15.0235 17.3374 13.6749C15.7784 13.6438 14.219 13.6632 12.6599 13.6201C12.656 12.6925 12.6522 11.7685 12.656 10.8409C15.256 10.837 17.8598 10.8292 20.4636 10.8525C20.6235 13.1253 20.2882 15.5576 18.8107 17.3817C16.7875 19.9855 13.0496 20.7497 10.0088 19.7282C6.78164 18.6683 4.43477 15.4171 4.50501 12.0103Z" fill="white"/>
</svg>
