<svg width="32" height="33" viewBox="0 0 32 33" fill="none" xmlns="http://www.w3.org/2000/svg">
<path d="M8.07275 16.8156H15.1865V23.9293C15.1865 24.3693 15.5518 24.7428 15.9917 24.7428C16.4399 24.7428 16.8052 24.3693 16.8052 23.9293V16.8156H23.9189C24.3589 16.8156 24.7324 16.4503 24.7324 16.0104C24.7324 15.5621 24.3589 15.1969 23.9189 15.1969H16.8052V8.08313C16.8052 7.64319 16.4399 7.26965 15.9917 7.26965C15.5518 7.26965 15.1865 7.64319 15.1865 8.08313V15.1969H8.07275C7.63281 15.1969 7.25928 15.5621 7.25928 16.0104C7.25928 16.4503 7.63281 16.8156 8.07275 16.8156Z" fill="#3C3C43" fill-opacity="0.6"/>
<path d="M16 31.0035C7.71573 31.0035 1 24.2878 1 16.0035H-1C-1 25.3924 6.61116 33.0035 16 33.0035V31.0035ZM31 16.0035C31 24.2878 24.2843 31.0035 16 31.0035V33.0035C25.3888 33.0035 33 25.3924 33 16.0035H31ZM16 1.00354C24.2843 1.00354 31 7.71927 31 16.0035H33C33 6.6147 25.3888 -0.99646 16 -0.99646V1.00354ZM16 -0.99646C6.61116 -0.99646 -1 6.6147 -1 16.0035H1C1 7.71927 7.71573 1.00354 16 1.00354V-0.99646Z" fill="#3C3C43" fill-opacity="0.33"/>
</svg>
