<svg width="20" height="11" viewBox="0 0 20 11" fill="none" xmlns="http://www.w3.org/2000/svg">
<path d="M0.849609 2.44336H19.1309C19.541 2.44336 19.873 2.12109 19.873 1.71094C19.873 1.30078 19.541 0.96875 19.1309 0.96875H0.849609C0.439453 0.96875 0.117188 1.30078 0.117188 1.71094C0.117188 2.12109 0.439453 2.44336 0.849609 2.44336ZM0.849609 6.70117H19.1309C19.541 6.70117 19.873 6.37891 19.873 5.96875C19.873 5.54883 19.541 5.2168 19.1309 5.2168H0.849609C0.439453 5.2168 0.117188 5.54883 0.117188 5.96875C0.117188 6.37891 0.439453 6.70117 0.849609 6.70117ZM0.849609 10.9688H19.1309C19.541 10.9688 19.873 10.6367 19.873 10.2168C19.873 9.80664 19.541 9.48438 19.1309 9.48438H0.849609C0.439453 9.48438 0.117188 9.80664 0.117188 10.2168C0.117188 10.6367 0.439453 10.9688 0.849609 10.9688Z" fill="#007AFF"/>
</svg>
