<svg width="36" height="36" viewBox="0 0 36 36" fill="none" xmlns="http://www.w3.org/2000/svg">
<path d="M12.7266 17.959C12.7266 16.875 11.8477 16.0059 10.7441 16.0059C9.66992 16.0059 8.79102 16.875 8.79102 17.959C8.79102 19.043 9.66992 19.9121 10.7441 19.9121C11.8477 19.9121 12.7266 19.043 12.7266 17.959ZM19.9531 17.959C19.9531 16.875 19.084 16.0059 18 16.0059C16.9258 16.0059 16.0566 16.875 16.0566 17.959C16.0566 19.043 16.9258 19.9121 18 19.9121C19.084 19.9121 19.9531 19.043 19.9531 17.959ZM27.209 17.959C27.209 16.875 26.3398 16.0059 25.2559 16.0059C24.1523 16.0059 23.2832 16.875 23.2832 17.959C23.2832 19.043 24.1523 19.9121 25.2559 19.9121C26.3398 19.9121 27.209 19.043 27.209 17.959Z" fill="#007AFF"/>
</svg>
