<svg width="29" height="30" viewBox="0 0 29 30" fill="none" xmlns="http://www.w3.org/2000/svg">
<rect y="0.503418" width="29" height="29" rx="4" fill="#5856D6"/>
<path d="M14.5 23.9771C19.1318 23.9771 22.9668 20.1338 22.9668 15.5103C22.9668 10.8784 19.1235 7.04346 14.4917 7.04346C9.86816 7.04346 6.0332 10.8784 6.0332 15.5103C6.0332 20.1338 9.87646 23.9771 14.5 23.9771ZM14.5 22.5659C10.582 22.5659 7.45264 19.4282 7.45264 15.5103C7.45264 11.5923 10.5737 8.45459 14.4917 8.45459C18.4097 8.45459 21.5474 11.5923 21.5557 15.5103C21.564 19.4282 18.418 22.5659 14.5 22.5659ZM18.1855 15.8921C18.1855 13.8584 16.5088 12.2563 14.6411 12.2563C14.5664 12.2563 14.4834 12.2646 14.417 12.2729L15.0063 11.6753C15.0977 11.5757 15.1558 11.4429 15.1558 11.2935C15.1558 11.0029 14.9233 10.7622 14.6245 10.7622C14.4834 10.7622 14.3423 10.8286 14.2427 10.9282L12.6489 12.5552C12.458 12.7544 12.4497 13.1279 12.6489 13.3188L14.2593 14.9292C14.3506 15.0205 14.4917 15.0869 14.6245 15.0869C14.9233 15.0869 15.1475 14.8545 15.1475 14.564C15.1475 14.4146 15.0977 14.2817 14.998 14.1821L14.1846 13.3853C14.2676 13.3687 14.3838 13.3687 14.4834 13.3687C15.9111 13.3687 17.0483 14.4976 17.0483 15.917C17.0483 17.3447 15.9111 18.4902 14.4834 18.4902C13.064 18.4902 11.9268 17.3447 11.9268 15.917C11.9268 15.6099 11.6694 15.3608 11.354 15.3608C11.0469 15.3608 10.7896 15.6099 10.7896 15.917C10.7896 17.9673 12.4331 19.6357 14.4834 19.6357C16.5337 19.6357 18.1855 17.9673 18.1855 15.8921Z" fill="white"/>
</svg>
