<svg width="18" height="17" viewBox="0 0 18 17" fill="none" xmlns="http://www.w3.org/2000/svg">
<path d="M16.5854 2.20312L17.1831 1.58887C17.4653 1.29004 17.4653 0.891602 17.1831 0.617676L16.9922 0.418457C16.7349 0.161133 16.3281 0.194336 16.0542 0.459961L15.4482 1.05762L16.5854 2.20312ZM6.59961 11.2593L8.21826 10.5537L15.9712 2.80908L14.834 1.68848L7.08936 9.43311L6.34229 10.9937C6.27588 11.1348 6.44189 11.3257 6.59961 11.2593ZM3.57812 16.6382H13.3232C14.8174 16.6382 15.6807 15.7749 15.6807 14.0649V5.19141L14.3442 6.52783V13.9985C14.3442 14.8618 13.8794 15.3018 13.3066 15.3018H3.60303C2.77295 15.3018 2.30811 14.8618 2.30811 13.9985V4.57715C2.30811 3.71387 2.77295 3.26562 3.60303 3.26562H11.165L12.5015 1.9292H3.57812C1.85156 1.9292 0.97168 2.79248 0.97168 4.50244V14.0649C0.97168 15.7832 1.85156 16.6382 3.57812 16.6382Z" fill="#007AFF"/>
</svg>
