<svg width="24" height="24" viewBox="0 0 24 24" fill="none" xmlns="http://www.w3.org/2000/svg">
<path d="M3.55273 20.9531H20.4473C22.498 20.9531 23.5137 19.9375 23.5137 17.9258V6.00195C23.5137 3.99023 22.498 2.97461 20.4473 2.97461H3.55273C1.51172 2.97461 0.486328 3.98047 0.486328 6.00195V17.9258C0.486328 19.9473 1.51172 20.9531 3.55273 20.9531ZM16.707 11.9395C16.2676 11.5488 15.7598 11.3438 15.2324 11.3438C14.6953 11.3438 14.2168 11.5293 13.7676 11.9297L9.35352 15.875L7.54688 14.2344C7.13672 13.873 6.6875 13.6777 6.22852 13.6777C5.78906 13.6777 5.37891 13.8633 4.96875 14.2246L2.05859 16.8516V6.08008C2.05859 5.06445 2.5957 4.54688 3.57227 4.54688H20.4277C21.3945 4.54688 21.9414 5.06445 21.9414 6.08008V16.8613L16.707 11.9395ZM7.76172 12.0469C9.02148 12.0469 10.0566 11.0117 10.0566 9.74219C10.0566 8.48242 9.02148 7.4375 7.76172 7.4375C6.49219 7.4375 5.45703 8.48242 5.45703 9.74219C5.45703 11.0117 6.49219 12.0469 7.76172 12.0469Z" fill="#007AFF"/>
</svg>
