<svg width="18" height="18" viewBox="0 0 18 18" fill="none" xmlns="http://www.w3.org/2000/svg">
<path d="M1.8125 9.81836H8.13086V16.1367C8.13086 16.6055 8.52148 17.0059 9 17.0059C9.47852 17.0059 9.87891 16.6055 9.87891 16.1367V9.81836H16.1875C16.6562 9.81836 17.0566 9.42773 17.0566 8.94922C17.0566 8.4707 16.6562 8.07031 16.1875 8.07031H9.87891V1.76172C9.87891 1.29297 9.47852 0.892578 9 0.892578C8.52148 0.892578 8.13086 1.29297 8.13086 1.76172V8.07031H1.8125C1.34375 8.07031 0.943359 8.4707 0.943359 8.94922C0.943359 9.42773 1.34375 9.81836 1.8125 9.81836Z" fill="#007AFF"/>
</svg>
