<svg width="8" height="13" viewBox="0 0 8 13" fill="none" xmlns="http://www.w3.org/2000/svg">
<path d="M7.20215 6.41699C7.20215 6.14404 7.10693 5.92188 6.88477 5.7124L2.01611 0.95166C1.85107 0.780273 1.64795 0.697754 1.40039 0.697754C0.911621 0.697754 0.511719 1.09131 0.511719 1.58008C0.511719 1.82129 0.613281 2.04346 0.791016 2.22119L5.10742 6.41064L0.791016 10.6128C0.613281 10.7842 0.511719 11.0063 0.511719 11.2539C0.511719 11.7427 0.911621 12.1362 1.40039 12.1362C1.6416 12.1362 1.85107 12.0537 2.01611 11.8823L6.88477 7.12158C7.10693 6.91211 7.20215 6.68359 7.20215 6.41699Z" fill="#3C3C43" fill-opacity="0.33"/>
</svg>
