<svg width="81" height="81" viewBox="0 0 81 81" fill="none" xmlns="http://www.w3.org/2000/svg">
<path d="M40.5 80.6406C62.2969 80.6406 80.3438 62.5547 80.3438 40.7969C80.3438 19 62.2578 0.953125 40.4609 0.953125C18.7031 0.953125 0.65625 19 0.65625 40.7969C0.65625 62.5547 18.7422 80.6406 40.5 80.6406ZM40.5 74C22.0625 74 7.33594 59.2344 7.33594 40.7969C7.33594 22.3594 22.0234 7.59375 40.4609 7.59375C58.8984 7.59375 73.6641 22.3594 73.7031 40.7969C73.7422 59.2344 58.9375 74 40.5 74ZM36.2031 59.3516C37.4922 59.3516 38.5859 58.7266 39.3672 57.5156L57.2188 29.4297C57.6484 28.6875 58.1562 27.7891 58.1562 26.9297C58.1562 25.2109 56.5938 24.0781 54.9531 24.0781C53.9766 24.0781 53 24.6641 52.2578 25.8359L36.0469 51.8125L28.3516 41.8906C27.4141 40.6406 26.5547 40.2891 25.4609 40.2891C23.7812 40.2891 22.4531 41.6562 22.4531 43.4141C22.4531 44.2344 22.8047 45.0938 23.3516 45.8359L32.8828 57.5156C33.8594 58.8047 34.9141 59.3516 36.2031 59.3516Z" fill="#007AFF"/>
</svg>
