<svg width="20" height="20" viewBox="0 0 20 20" fill="none" xmlns="http://www.w3.org/2000/svg">
<path d="M8.31055 15.6914C9.94141 15.6914 11.4453 15.1641 12.6758 14.2852L17.3047 18.9141C17.5195 19.1289 17.8027 19.2363 18.1055 19.2363C18.7402 19.2363 19.1895 18.748 19.1895 18.123C19.1895 17.8301 19.0918 17.5469 18.877 17.3418L14.2773 12.7324C15.2441 11.4629 15.8203 9.89062 15.8203 8.18164C15.8203 4.05078 12.4414 0.671875 8.31055 0.671875C4.18945 0.671875 0.800781 4.04102 0.800781 8.18164C0.800781 12.3125 4.17969 15.6914 8.31055 15.6914ZM8.31055 14.0703C5.08789 14.0703 2.42188 11.4043 2.42188 8.18164C2.42188 4.95898 5.08789 2.29297 8.31055 2.29297C11.5332 2.29297 14.1992 4.95898 14.1992 8.18164C14.1992 11.4043 11.5332 14.0703 8.31055 14.0703Z" fill="#3C3C43" fill-opacity="0.6"/>
</svg>
