<svg width="29" height="30" viewBox="0 0 29 30" fill="none" xmlns="http://www.w3.org/2000/svg">
<path d="M9.92736 24.6948H18.8727C20.3375 24.6948 21.0602 23.9624 21.0602 22.3706V15.6421C21.0602 14.2554 20.5035 13.5229 19.3707 13.3667V11.0034C19.3707 7.32178 16.9586 5.54443 14.4 5.54443C11.8414 5.54443 9.42932 7.32178 9.42932 11.0034V13.3667C8.2965 13.5229 7.73986 14.2554 7.73986 15.6421V22.3706C7.73986 23.9624 8.46252 24.6948 9.92736 24.6948ZM11.0016 10.7983C11.0016 8.34717 12.5738 7.04834 14.4 7.04834C16.2262 7.04834 17.7985 8.34717 17.7985 10.7983V13.3374H11.0016V10.7983ZM9.98596 23.23C9.53674 23.23 9.31213 23.0249 9.31213 22.478V15.5444C9.31213 14.9976 9.53674 14.8022 9.98596 14.8022H18.8238C19.2731 14.8022 19.4879 14.9976 19.4879 15.5444V22.478C19.4879 23.0249 19.2731 23.23 18.8238 23.23H9.98596Z" fill="#007AFF"/>
</svg>
