<svg width="29" height="30" viewBox="0 0 29 30" fill="none" xmlns="http://www.w3.org/2000/svg">
<path d="M19.6735 6.37451H11.7242C11.1676 6.37451 10.8453 6.65771 10.8551 7.15576C10.8649 7.65381 11.1676 7.94678 11.7242 7.94678H19.6539C20.6305 7.94678 21.1676 8.46436 21.1676 9.47998V20.0854L19.7125 18.5229L18.775 17.605C18.443 17.2827 17.984 17.2437 17.6422 17.5757C17.3102 17.9077 17.3297 18.3862 17.6617 18.7183L20.9528 21.9897C21.5973 22.6245 22.3004 22.6245 22.9449 21.9897L26.2262 18.7183C26.568 18.3862 26.5778 17.9077 26.2555 17.5757C25.9235 17.2437 25.4547 17.2729 25.1227 17.605L24.1852 18.5229L22.7399 20.0757V9.40186C22.7399 7.38037 21.7145 6.37451 19.6735 6.37451ZM9.12658 24.353H17.0758C17.6324 24.353 17.9547 24.0698 17.9449 23.5718C17.9352 23.064 17.6324 22.7808 17.0758 22.7808H9.15588C8.17932 22.7808 7.63244 22.2632 7.63244 21.2476V10.6421L9.08752 12.1948L10.025 13.1226C10.3571 13.4448 10.8258 13.4839 11.1578 13.1421C11.4899 12.8198 11.4703 12.3413 11.1383 12.0093L7.84729 8.72803C7.21252 8.10303 6.49963 8.10303 5.86486 8.72803L2.57385 12.0093C2.23205 12.3413 2.22229 12.8198 2.54455 13.1421C2.88635 13.4839 3.34533 13.4448 3.67736 13.1226L4.61486 12.1948L6.06018 10.6519V21.3257C6.06018 23.3472 7.09533 24.353 9.12658 24.353Z" fill="#007AFF"/>
</svg>
