<svg width="29" height="30" viewBox="0 0 29 30" fill="none" xmlns="http://www.w3.org/2000/svg">
<path d="M23.1696 12.019C23.6871 12.019 23.9606 11.7261 23.9606 11.2183V8.82568C23.9606 6.81396 22.9352 5.80811 20.8942 5.80811H18.5016C17.9938 5.80811 17.7106 6.08154 17.7106 6.58936C17.7106 7.09717 17.9938 7.38037 18.5016 7.38037H20.8649C21.8317 7.38037 22.3883 7.89795 22.3883 8.91357V11.2183C22.3883 11.7261 22.6715 12.019 23.1696 12.019ZM5.62072 12.019C6.1383 12.019 6.41174 11.7261 6.41174 11.2183V8.91357C6.41174 7.89795 6.94885 7.38037 7.92541 7.38037H10.2887C10.8063 7.38037 11.0895 7.09717 11.0895 6.58936C11.0895 6.08154 10.8063 5.80811 10.2887 5.80811H7.90588C5.86486 5.80811 4.83947 6.81396 4.83947 8.82568V11.2183C4.83947 11.7261 5.12268 12.019 5.62072 12.019ZM13.6188 17.0093H13.6969C14.6832 17.0093 15.2203 16.4722 15.2203 15.4858V12.4097C15.2203 12.0288 14.9664 11.7847 14.5953 11.7847C14.2047 11.7847 13.9508 12.0288 13.9508 12.4097V15.5737C13.9508 15.6714 13.8922 15.7202 13.8043 15.7202H13.4625C13.111 15.7202 12.8375 15.9937 12.8375 16.3452C12.8375 16.7651 13.1207 17.0093 13.6188 17.0093ZM10.6793 14.7046C11.1383 14.7046 11.4703 14.3823 11.4703 13.9136V12.5854C11.4703 12.1167 11.1383 11.7944 10.6793 11.7944C10.2203 11.7944 9.89807 12.1167 9.89807 12.5854V13.9136C9.89807 14.3823 10.2203 14.7046 10.6793 14.7046ZM18.0914 14.7046C18.5406 14.7046 18.8629 14.3823 18.8629 13.9136V12.5854C18.8629 12.1167 18.5406 11.7944 18.0914 11.7944C17.6227 11.7944 17.3004 12.1167 17.3004 12.5854V13.9136C17.3004 14.3823 17.6227 14.7046 18.0914 14.7046ZM14.3414 20.2905C15.5231 20.2905 16.7145 19.7827 17.5641 18.9331C17.6813 18.8257 17.7399 18.6597 17.7399 18.4644C17.7399 18.0933 17.4664 17.8296 17.1051 17.8296C16.9196 17.8296 16.7828 17.8979 16.5973 18.0933C16.0602 18.6499 15.2106 19.0308 14.3414 19.0308C13.5211 19.0308 12.6617 18.6694 12.0953 18.0933C11.9391 17.9468 11.8121 17.8296 11.5778 17.8296C11.2164 17.8296 10.943 18.0933 10.943 18.4644C10.943 18.6304 11.0016 18.7866 11.1285 18.9233C11.9196 19.8218 13.1598 20.2905 14.3414 20.2905ZM7.90588 24.9194H10.2887C10.8063 24.9194 11.0895 24.6362 11.0895 24.1382C11.0895 23.6304 10.8063 23.3472 10.2887 23.3472H7.92541C6.94885 23.3472 6.41174 22.8296 6.41174 21.814V19.5093C6.41174 18.9917 6.12854 18.7085 5.62072 18.7085C5.11291 18.7085 4.83947 18.9917 4.83947 19.5093V21.8921C4.83947 23.9136 5.86486 24.9194 7.90588 24.9194ZM18.5016 24.9194H20.8942C22.9352 24.9194 23.9606 23.9038 23.9606 21.8921V19.5093C23.9606 18.9917 23.6774 18.7085 23.1696 18.7085C22.6617 18.7085 22.3883 18.9917 22.3883 19.5093V21.814C22.3883 22.8296 21.8317 23.3472 20.8649 23.3472H18.5016C17.9938 23.3472 17.7106 23.6304 17.7106 24.1382C17.7106 24.6362 17.9938 24.9194 18.5016 24.9194Z" fill="#007AFF"/>
</svg>
