<svg width="28" height="29" viewBox="0 0 28 29" fill="none" xmlns="http://www.w3.org/2000/svg">
<path d="M14 28.0742C21.6289 28.0742 27.9453 21.7441 27.9453 14.1289C27.9453 6.5 21.6152 0.183594 13.9863 0.183594C6.37109 0.183594 0.0546875 6.5 0.0546875 14.1289C0.0546875 21.7441 6.38477 28.0742 14 28.0742ZM14 21.1836C13.3848 21.1836 12.9336 20.7461 12.9336 20.1172V13.1035L13.0566 10.1094L11.6484 11.8047L9.98047 13.4863C9.78906 13.6777 9.51562 13.8008 9.22852 13.8008C8.64062 13.8008 8.20312 13.3496 8.20312 12.7754C8.20312 12.4746 8.28516 12.2285 8.47656 12.0371L13.1797 7.34766C13.4668 7.06055 13.6992 6.95117 14 6.95117C14.3145 6.95117 14.5605 7.07422 14.834 7.34766L19.5234 12.0371C19.7148 12.2285 19.8242 12.4746 19.8242 12.7754C19.8242 13.3496 19.373 13.8008 18.7852 13.8008C18.4844 13.8008 18.2246 13.6914 18.0332 13.4863L16.3789 11.8047L14.9434 10.0957L15.0664 13.1035V20.1172C15.0664 20.7461 14.6289 21.1836 14 21.1836Z" fill="#007AFF" fill-opacity="0.3"/>
</svg>
