<svg width="29" height="30" viewBox="0 0 29 30" fill="none" xmlns="http://www.w3.org/2000/svg">
<rect y="0.502014" width="29" height="29" rx="4" fill="#FF2D55"/>
<path d="M8.48193 19.7921C8.48193 19.9913 8.57324 20.1739 8.70605 20.3067L11.4204 23.0128C11.686 23.2867 11.9766 23.4112 12.2754 23.4112C12.5659 23.4112 12.8481 23.2784 13.1138 23.0128L15.8364 20.2984C15.9775 20.1573 16.0605 19.9747 16.0605 19.7838C16.0605 19.4102 15.7617 19.128 15.4297 19.128C15.1807 19.128 15.0229 19.2193 14.8818 19.3521L14.168 20.066L12.8979 21.5186L12.981 18.8375V12.5372C12.981 10.4371 14.1431 9.02594 16.0688 9.02594C17.8701 9.02594 19.1235 10.2794 19.1235 12.1636C19.1235 13.9815 17.895 15.2598 16.2017 15.2598C15.6123 15.2598 15.4629 15.1353 15.1724 15.1353C14.8154 15.1353 14.5249 15.376 14.5249 15.7496C14.5249 15.9986 14.6494 16.1895 14.832 16.3306C15.1475 16.5797 15.6787 16.671 16.1602 16.671C18.7998 16.671 20.5181 14.8282 20.5181 12.1636C20.5181 9.42438 18.7085 7.60651 16.0688 7.60651C13.3794 7.60651 11.5532 9.39948 11.5532 12.5953V18.8458L11.6362 21.5186L10.3662 20.0743L9.65234 19.3604C9.51953 19.2276 9.36182 19.1363 9.11279 19.1363C8.77246 19.1363 8.48193 19.4185 8.48193 19.7921Z" fill="white"/>
</svg>
