<svg width="29" height="30" viewBox="0 0 29 30" fill="none" xmlns="http://www.w3.org/2000/svg">
<rect y="0.50658" width="29" height="29" rx="4" fill="#007AFF"/>
<path d="M14.0933 18.925C14.6743 18.925 14.9399 18.5266 14.9399 17.9953V17.7131C14.9565 16.6174 15.3467 16.1609 16.6748 15.2478C18.1025 14.2849 19.0073 13.1726 19.0073 11.5705C19.0073 9.08031 16.9819 7.65258 14.4585 7.65258C12.5825 7.65258 10.939 8.54076 10.2334 10.1428C10.0591 10.5329 9.98438 10.9148 9.98438 11.2302C9.98438 11.7034 10.2583 12.0354 10.7646 12.0354C11.188 12.0354 11.4702 11.7864 11.5947 11.3796C12.0181 9.80248 13.064 9.20482 14.4004 9.20482C16.019 9.20482 17.2891 10.1179 17.2891 11.5622C17.2891 12.7493 16.5503 13.4133 15.4878 14.1604C14.1846 15.0652 13.23 16.0364 13.23 17.4973V18.0203C13.23 18.5515 13.5205 18.925 14.0933 18.925ZM14.0933 23.4656C14.7573 23.4656 15.2803 22.9343 15.2803 22.2869C15.2803 21.6311 14.7573 21.1081 14.0933 21.1081C13.4458 21.1081 12.9146 21.6311 12.9146 22.2869C12.9146 22.9343 13.4458 23.4656 14.0933 23.4656Z" fill="white"/>
</svg>
