<svg width="29" height="30" viewBox="0 0 29 30" fill="none" xmlns="http://www.w3.org/2000/svg">
<path d="M0 6.90293C0 4.66272 0 3.54261 0.435974 2.68697C0.819467 1.93432 1.43139 1.3224 2.18404 0.938904C3.03969 0.50293 4.15979 0.50293 6.4 0.50293H22.6C24.8402 0.50293 25.9603 0.50293 26.816 0.938904C27.5686 1.3224 28.1805 1.93432 28.564 2.68697C29 3.54261 29 4.66272 29 6.90293V23.1029C29 25.3431 29 26.4632 28.564 27.3189C28.1805 28.0715 27.5686 28.6835 26.816 29.067C25.9603 29.5029 24.8402 29.5029 22.6 29.5029H6.4C4.15979 29.5029 3.03969 29.5029 2.18404 29.067C1.43139 28.6835 0.819467 28.0715 0.435974 27.3189C0 26.4632 0 25.3431 0 23.1029V6.90293Z" fill="#5AC8FA"/>
<path d="M10.4575 24.6323C10.8643 24.6323 11.1465 24.4165 11.6528 23.9683L14.5166 21.4199H19.8457C22.3193 21.4199 23.6475 20.0503 23.6475 17.6182V11.2598C23.6475 8.82764 22.3193 7.45801 19.8457 7.45801H9.1543C6.68066 7.45801 5.35254 8.81934 5.35254 11.2598V17.6182C5.35254 20.0586 6.68066 21.4199 9.1543 21.4199H9.55273V23.5781C9.55273 24.2173 9.87646 24.6323 10.4575 24.6323ZM10.7979 23.1133V20.7061C10.7979 20.2578 10.6235 20.0835 10.1753 20.0835H9.1543C7.47754 20.0835 6.68896 19.2285 6.68896 17.6099V11.2598C6.68896 9.64111 7.47754 8.79443 9.1543 8.79443H19.8457C21.5142 8.79443 22.311 9.64111 22.311 11.2598V17.6099C22.311 19.2285 21.5142 20.0835 19.8457 20.0835H14.4668C14.002 20.0835 13.7695 20.1499 13.4541 20.4736L10.7979 23.1133ZM10.4409 15.626C11.0967 15.626 11.6279 15.0947 11.6279 14.439C11.6279 13.7832 11.0967 13.252 10.4409 13.252C9.78516 13.252 9.25391 13.7832 9.25391 14.439C9.25391 15.0947 9.78516 15.626 10.4409 15.626ZM14.5083 15.626C15.1558 15.626 15.6953 15.0947 15.6953 14.439C15.6953 13.7832 15.1558 13.252 14.5083 13.252C13.8525 13.252 13.313 13.7832 13.313 14.439C13.313 15.0947 13.8525 15.626 14.5083 15.626ZM18.5674 15.626C19.2231 15.626 19.7544 15.0947 19.7544 14.439C19.7544 13.7832 19.2231 13.252 18.5674 13.252C17.9116 13.252 17.3804 13.7832 17.3804 14.439C17.3804 15.0947 17.9116 15.626 18.5674 15.626Z" fill="white"/>
</svg>
