<svg width="31" height="31" viewBox="0 0 31 31" fill="none" xmlns="http://www.w3.org/2000/svg">
<path d="M1 10.102C1 6.74164 1 5.06148 1.65396 3.77801C2.2292 2.64904 3.14708 1.73115 4.27606 1.15591C5.55953 0.501953 7.23969 0.501953 10.6 0.501953H20.4C23.7603 0.501953 25.4405 0.501953 26.7239 1.15591C27.8529 1.73115 28.7708 2.64904 29.346 3.77801C30 5.06148 30 6.74164 30 10.102V19.902C30 23.2623 30 24.9424 29.346 26.2259C28.7708 27.3549 27.8529 28.2728 26.7239 28.848C25.4405 29.502 23.7603 29.502 20.4 29.502H10.6C7.23969 29.502 5.55953 29.502 4.27606 28.848C3.14708 28.2728 2.2292 27.3549 1.65396 26.2259C1 24.9424 1 23.2623 1 19.902V10.102Z" fill="#FF9500"/>
<path d="M4.86633 8.76807C4.86633 9.68115 5.6134 10.4448 6.53479 10.4448C7.46448 10.4448 8.21985 9.68115 8.21985 8.76807C8.21985 7.84668 7.46448 7.08301 6.53479 7.08301C5.6134 7.08301 4.86633 7.84668 4.86633 8.76807ZM22.5885 8.76807C22.5885 9.68115 23.3439 10.4448 24.2653 10.4448C25.1866 10.4448 25.9503 9.68115 25.9503 8.76807C25.9503 7.84668 25.1866 7.08301 24.2653 7.08301C23.3439 7.08301 22.5885 7.84668 22.5885 8.76807ZM2.93225 17.5918C2.92395 18.0649 3.20618 18.3472 3.61292 18.3472C4.01965 18.3472 4.30188 18.0649 4.31018 17.5918L4.30188 14.0972C4.30188 13.9229 4.39319 13.7983 4.5426 13.7983C4.68372 13.7983 4.77502 13.9229 4.77502 14.0972V22.9375C4.77502 23.4688 5.10706 23.7593 5.5553 23.7593C5.99524 23.7593 6.31897 23.4688 6.31897 22.9375V17.4507C6.31897 17.2764 6.40198 17.1602 6.53479 17.1602C6.6676 17.1602 6.75891 17.2764 6.75891 17.4507V22.9375C6.75891 23.4688 7.09094 23.7593 7.52258 23.7593C7.97083 23.7593 8.30286 23.4688 8.30286 22.9375V14.0972C8.30286 13.9229 8.37756 13.7983 8.53528 13.7983C8.67639 13.7983 8.7594 13.9229 8.7594 14.0972L8.7677 17.5918C8.7594 18.0649 9.05823 18.3472 9.45667 18.3472C9.8717 18.3472 10.1456 18.0649 10.1456 17.5918V14.147C10.1456 11.9722 8.93372 11.1338 6.53479 11.1338C4.15247 11.1338 2.92395 11.9722 2.92395 14.147L2.93225 17.5918ZM20.6544 17.5918C20.6544 18.0649 20.9366 18.3472 21.3517 18.3472C21.7418 18.3472 22.0406 18.0649 22.0406 17.5918V14.0972C22.0406 13.9229 22.1237 13.7983 22.2731 13.7983C22.4225 13.7983 22.4972 13.9229 22.4972 14.0972V22.9375C22.4972 23.4688 22.8375 23.7593 23.2858 23.7593C23.7257 23.7593 24.0411 23.4688 24.0411 22.9375V17.4507C24.0411 17.2764 24.1407 17.1602 24.2653 17.1602C24.4064 17.1602 24.4811 17.2764 24.4811 17.4507V22.9375C24.4811 23.4688 24.8214 23.7593 25.2531 23.7593C25.7013 23.7593 26.025 23.4688 26.025 22.9375V14.0972C26.025 13.9229 26.1163 13.7983 26.2657 13.7983C26.4069 13.7983 26.4982 13.9229 26.4982 14.0972V17.5918C26.4982 18.0649 26.7887 18.3472 27.1954 18.3472C27.6022 18.3472 27.8761 18.0649 27.8761 17.5918V14.147C27.8761 11.9722 26.6559 11.1338 24.2653 11.1338C21.8746 11.1338 20.6544 11.9722 20.6544 14.147V17.5918ZM12.2125 16.4629C12.7936 16.4629 13.2667 15.998 13.2667 15.4087C13.2667 14.8193 12.7936 14.3545 12.2125 14.3545C11.6232 14.3545 11.15 14.8193 11.15 15.4087C11.15 15.998 11.6232 16.4629 12.2125 16.4629ZM15.4083 16.4629C15.9977 16.4629 16.4708 15.998 16.4708 15.4087C16.4708 14.8193 15.9977 14.3545 15.4083 14.3545C14.8273 14.3545 14.3541 14.8193 14.3541 15.4087C14.3541 15.998 14.8273 16.4629 15.4083 16.4629ZM18.6041 16.4629C19.1935 16.4629 19.6583 15.998 19.6583 15.4087C19.6583 14.8193 19.1935 14.3545 18.6041 14.3545C18.0148 14.3545 17.5499 14.8193 17.5499 15.4087C17.5499 15.998 18.0148 16.4629 18.6041 16.4629Z" fill="white"/>
<path d="M1.43121 3.66451C1.08328 4.34736 0.915584 5.12483 0.832575 6.14081C0.749999 7.15149 0.75 8.41997 0.75 10.0902V10.102V19.902V19.9137C0.75 21.5839 0.749999 22.8524 0.832575 23.8631C0.915584 24.8791 1.08328 25.6565 1.43121 26.3394C2.03042 27.5154 2.98655 28.4715 4.16256 29.0707C4.84541 29.4187 5.62288 29.5864 6.63885 29.6694C7.64954 29.752 8.91801 29.752 10.5882 29.752H10.6H20.4H20.4118C22.082 29.752 23.3505 29.752 24.3611 29.6694C25.3771 29.5864 26.1546 29.4187 26.8374 29.0707C28.0135 28.4715 28.9696 27.5154 29.5688 26.3394C29.9167 25.6565 30.0844 24.8791 30.1674 23.8631C30.25 22.8524 30.25 21.5839 30.25 19.9137V19.902V10.102V10.0902C30.25 8.41997 30.25 7.15149 30.1674 6.14081C30.0844 5.12483 29.9167 4.34736 29.5688 3.66451C28.9696 2.4885 28.0135 1.53237 26.8374 0.933162C26.1546 0.585232 25.3771 0.417537 24.3611 0.334529C23.3505 0.251952 22.082 0.251953 20.4118 0.251953H20.4H10.6H10.5882C8.91802 0.251953 7.64954 0.251952 6.63885 0.334529C5.62288 0.417537 4.84541 0.585232 4.16256 0.933162C2.98655 1.53237 2.03042 2.4885 1.43121 3.66451Z" stroke="#3C3C43" stroke-opacity="0.18" stroke-width="0.5"/>
</svg>
