<svg width="29" height="30" viewBox="0 0 29 30" fill="none" xmlns="http://www.w3.org/2000/svg">
<path d="M0 10.102C0 6.74164 0 5.06148 0.653961 3.77801C1.2292 2.64904 2.14708 1.73115 3.27606 1.15591C4.55953 0.501953 6.23969 0.501953 9.6 0.501953H19.4C22.7603 0.501953 24.4405 0.501953 25.7239 1.15591C26.8529 1.73115 27.7708 2.64904 28.346 3.77801C29 5.06148 29 6.74164 29 10.102V19.902C29 23.2623 29 24.9424 28.346 26.2259C27.7708 27.3549 26.8529 28.2728 25.7239 28.848C24.4405 29.502 22.7603 29.502 19.4 29.502H9.6C6.23969 29.502 4.55953 29.502 3.27606 28.848C2.14708 28.2728 1.2292 27.3549 0.653961 26.2259C0 24.9424 0 23.2623 0 19.902V10.102Z" fill="#007AFF"/>
<path d="M6.22412 20.5889C6.22412 22.3071 7.0957 23.1621 8.83057 23.1621H17.4717C17.231 22.7471 17.0483 22.2988 16.9321 21.8257H8.70605C7.96729 21.8257 7.56055 21.4355 7.56055 20.6636V12.8359C7.56055 12.0723 7.96729 11.6738 8.70605 11.6738H20.2773C21.0161 11.6738 21.4312 12.0723 21.4312 12.8359V15.1934C21.6719 15.1685 21.8877 15.1519 22.1118 15.1519C22.3276 15.1519 22.5518 15.1685 22.7676 15.1934V10.4536C22.7676 8.74365 21.9043 7.88037 20.1694 7.88037H8.83057C7.0957 7.88037 6.22412 8.73535 6.22412 10.4536V20.5889ZM12.873 14.6538H13.3628C13.6533 14.6538 13.7529 14.5708 13.7529 14.2803V13.7905C13.7529 13.5 13.6533 13.4087 13.3628 13.4087H12.873C12.5825 13.4087 12.4829 13.5 12.4829 13.7905V14.2803C12.4829 14.5708 12.5825 14.6538 12.873 14.6538ZM15.6372 14.6538H16.1187C16.4092 14.6538 16.5088 14.5708 16.5088 14.2803V13.7905C16.5088 13.5 16.4092 13.4087 16.1187 13.4087H15.6372C15.3384 13.4087 15.2471 13.5 15.2471 13.7905V14.2803C15.2471 14.5708 15.3384 14.6538 15.6372 14.6538ZM18.3931 14.6538H18.8828C19.1733 14.6538 19.2646 14.5708 19.2646 14.2803V13.7905C19.2646 13.5 19.1733 13.4087 18.8828 13.4087H18.3931C18.1025 13.4087 18.0029 13.5 18.0029 13.7905V14.2803C18.0029 14.5708 18.1025 14.6538 18.3931 14.6538ZM10.1172 17.3682H10.6069C10.8975 17.3682 10.9888 17.2852 10.9888 16.9946V16.5049C10.9888 16.2144 10.8975 16.1313 10.6069 16.1313H10.1172C9.82666 16.1313 9.72705 16.2144 9.72705 16.5049V16.9946C9.72705 17.2852 9.82666 17.3682 10.1172 17.3682ZM12.873 17.3682H13.3628C13.6533 17.3682 13.7529 17.2852 13.7529 16.9946V16.5049C13.7529 16.2144 13.6533 16.1313 13.3628 16.1313H12.873C12.5825 16.1313 12.4829 16.2144 12.4829 16.5049V16.9946C12.4829 17.2852 12.5825 17.3682 12.873 17.3682ZM15.6372 17.3682H16.1187C16.4092 17.3682 16.5088 17.2852 16.5088 16.9946V16.5049C16.5088 16.2144 16.4092 16.1313 16.1187 16.1313H15.6372C15.3384 16.1313 15.2471 16.2144 15.2471 16.5049V16.9946C15.2471 17.2852 15.3384 17.3682 15.6372 17.3682ZM22.1118 24.7227C24.3945 24.7227 26.3286 22.8135 26.3286 20.5059C26.3286 18.1899 24.4194 16.2891 22.1118 16.2891C19.7959 16.2891 17.895 18.1982 17.895 20.5059C17.895 22.8301 19.7959 24.7227 22.1118 24.7227ZM20.1445 21.1533C19.854 21.1533 19.6216 20.9209 19.6216 20.6387C19.6216 20.3647 19.8623 20.1323 20.1445 20.1323H21.6387V18.0488C21.6387 17.7749 21.8711 17.5508 22.1533 17.5508C22.4355 17.5508 22.668 17.7749 22.668 18.0488V20.6387C22.668 20.9292 22.4438 21.1533 22.1533 21.1533H20.1445ZM10.1172 20.0908H10.6069C10.8975 20.0908 10.9888 19.9995 10.9888 19.709V19.2192C10.9888 18.9287 10.8975 18.8457 10.6069 18.8457H10.1172C9.82666 18.8457 9.72705 18.9287 9.72705 19.2192V19.709C9.72705 19.9995 9.82666 20.0908 10.1172 20.0908ZM12.873 20.0908H13.3628C13.6533 20.0908 13.7529 19.9995 13.7529 19.709V19.2192C13.7529 18.9287 13.6533 18.8457 13.3628 18.8457H12.873C12.5825 18.8457 12.4829 18.9287 12.4829 19.2192V19.709C12.4829 19.9995 12.5825 20.0908 12.873 20.0908ZM15.6372 20.0908H16.1187C16.4092 20.0908 16.5088 19.9995 16.5088 19.709V19.2192C16.5088 18.9287 16.4092 18.8457 16.1187 18.8457H15.6372C15.3384 18.8457 15.2471 18.9287 15.2471 19.2192V19.709C15.2471 19.9995 15.3384 20.0908 15.6372 20.0908Z" fill="white"/>
</svg>
