<svg width="29" height="30" viewBox="0 0 29 30" fill="none" xmlns="http://www.w3.org/2000/svg">
<rect y="0.502991" width="29" height="29" rx="4" fill="#34C759"/>
<path d="M8.1499 22.3414H16.8242C18.8496 22.3414 20.0615 21.1627 20.0615 19.1456V18.0001L23.1992 20.6563C23.5312 20.9302 23.8965 21.1212 24.2368 21.1212C24.9673 21.1212 25.4487 20.5816 25.4487 19.8096V11.2266C25.4487 10.4547 24.9673 9.9151 24.2368 9.9151C23.8965 9.9151 23.5312 10.106 23.1992 10.3799L20.0615 13.0362V11.899C20.0615 9.8736 18.8496 8.69489 16.8242 8.69489H8.1499C6.21582 8.69489 4.9126 9.8736 4.9126 11.899V19.1456C4.9126 21.1627 6.12451 22.3414 8.1499 22.3414ZM8.38232 21.0963C7.021 21.0963 6.24902 20.3907 6.24902 18.9464V12.0899C6.24902 10.6539 7.021 9.9483 8.38232 9.9483H16.5918C17.9448 9.9483 18.7251 10.6539 18.7251 12.0899V18.9464C18.7251 20.3907 17.9448 21.0963 16.5918 21.0963H8.38232ZM23.8218 19.5274L20.0615 16.4229V14.6133L23.8218 11.5089C23.8965 11.4507 23.9463 11.4175 24.021 11.4175C24.1206 11.4175 24.1621 11.4922 24.1621 11.6085V19.4278C24.1621 19.544 24.1206 19.627 24.021 19.627C23.9463 19.627 23.8965 19.5772 23.8218 19.5274Z" fill="white"/>
</svg>
