<svg width="29" height="30" viewBox="0 0 29 30" fill="none" xmlns="http://www.w3.org/2000/svg">
<path d="M0 6.90586C0 4.66565 0 3.54554 0.435974 2.6899C0.819467 1.93725 1.43139 1.32533 2.18404 0.941833C3.03969 0.505859 4.15979 0.505859 6.4 0.505859H22.6C24.8402 0.505859 25.9603 0.505859 26.816 0.941833C27.5686 1.32533 28.1805 1.93725 28.564 2.6899C29 3.54554 29 4.66565 29 6.90586V23.1059C29 25.3461 29 26.4662 28.564 27.3218C28.1805 28.0745 27.5686 28.6864 26.816 29.0699C25.9603 29.5059 24.8402 29.5059 22.6 29.5059H6.4C4.15979 29.5059 3.03969 29.5059 2.18404 29.0699C1.43139 28.6864 0.819467 28.0745 0.435974 27.3218C0 26.4662 0 25.3461 0 23.1059V6.90586Z" fill="#34C759"/>
<path d="M18.9824 7.88428H12.2256C11.7524 7.88428 11.4785 8.125 11.4868 8.54834C11.4951 8.97168 11.7524 9.2207 12.2256 9.2207H18.9658C19.7959 9.2207 20.2524 9.66064 20.2524 10.5239V19.5386L19.0156 18.2104L18.2188 17.4302C17.9365 17.1562 17.5464 17.123 17.2559 17.4053C16.9736 17.6875 16.9902 18.0942 17.2725 18.3765L20.0698 21.1572C20.6177 21.6968 21.2153 21.6968 21.7632 21.1572L24.5522 18.3765C24.8428 18.0942 24.8511 17.6875 24.5771 17.4053C24.2949 17.123 23.8965 17.1479 23.6143 17.4302L22.8174 18.2104L21.5889 19.5303V10.4575C21.5889 8.73926 20.7173 7.88428 18.9824 7.88428ZM10.0176 23.166H16.7744C17.2476 23.166 17.5215 22.9253 17.5132 22.502C17.5049 22.0703 17.2476 21.8296 16.7744 21.8296H10.0425C9.2124 21.8296 8.74756 21.3896 8.74756 20.5264V11.5117L9.98438 12.8315L10.7812 13.6201C11.0635 13.894 11.4619 13.9272 11.7441 13.6367C12.0264 13.3628 12.0098 12.9561 11.7275 12.6738L8.93018 9.88477C8.39062 9.35352 7.78467 9.35352 7.24512 9.88477L4.44775 12.6738C4.15723 12.9561 4.14893 13.3628 4.42285 13.6367C4.71338 13.9272 5.10352 13.894 5.38574 13.6201L6.18262 12.8315L7.41113 11.52V20.5928C7.41113 22.311 8.29102 23.166 10.0176 23.166Z" fill="white"/>
</svg>
