<svg width="29" height="30" viewBox="0 0 29 30" fill="none" xmlns="http://www.w3.org/2000/svg">
<path d="M0 10.101C0 6.74066 0 5.0605 0.653961 3.77703C1.2292 2.64806 2.14708 1.73018 3.27606 1.15494C4.55953 0.500977 6.23969 0.500977 9.6 0.500977H19.4C22.7603 0.500977 24.4405 0.500977 25.7239 1.15494C26.8529 1.73018 27.7708 2.64806 28.346 3.77703C29 5.0605 29 6.74066 29 10.101V19.901C29 23.2613 29 24.9415 28.346 26.2249C27.7708 27.3539 26.8529 28.2718 25.7239 28.847C24.4405 29.501 22.7603 29.501 19.4 29.501H9.6C6.23969 29.501 4.55953 29.501 3.27606 28.847C2.14708 28.2718 1.2292 27.3539 0.653961 26.2249C0 24.9415 0 23.2613 0 19.901V10.101Z" fill="#34C759"/>
<path d="M9.46143 23.1611H19.5303C21.2734 23.1611 22.1367 22.2979 22.1367 20.5879V10.4526C22.1367 8.74268 21.2734 7.87939 19.5303 7.87939H9.46143C7.72656 7.87939 6.85498 8.73438 6.85498 10.4526V20.5879C6.85498 22.3062 7.72656 23.1611 9.46143 23.1611ZM9.47803 21.8247C8.64795 21.8247 8.19141 21.3848 8.19141 20.5215V10.519C8.19141 9.65576 8.64795 9.21582 9.47803 9.21582H19.5137C20.3354 9.21582 20.8003 9.65576 20.8003 10.519V20.5215C20.8003 21.3848 20.3354 21.8247 19.5137 21.8247H9.47803ZM13.5869 19.4507C15.9775 19.4507 17.3721 17.5747 17.3721 16.0806C17.3721 15.7402 17.1812 15.5244 16.8823 15.5244C16.6167 15.5244 16.4258 15.6821 16.3677 16.064C16.2183 17.2759 15.2637 18.3799 13.9106 18.3799V15.7319L15.6455 15.0098C15.8364 14.9268 15.9194 14.8022 15.9194 14.6196C15.9194 14.3872 15.7617 14.2212 15.5293 14.2212C15.4629 14.2212 15.3882 14.2378 15.3218 14.2627L13.9106 14.8604V14.0718L15.6455 13.3496C15.8364 13.2583 15.9194 13.1421 15.9194 12.9595C15.9194 12.7271 15.7617 12.5527 15.5293 12.5527C15.4629 12.5527 15.3882 12.5776 15.3218 12.6025L13.9106 13.1919V12.1377C13.9106 11.7974 13.7114 11.5815 13.4043 11.5815C13.0889 11.5815 12.8896 11.7974 12.8896 12.1377V13.6152L11.9019 14.0386C11.7026 14.1216 11.6279 14.2378 11.6279 14.4287C11.6279 14.6611 11.7856 14.8271 12.0181 14.8271C12.0845 14.8271 12.1509 14.8105 12.2256 14.7773L12.8896 14.4951V15.2837L11.9019 15.6987C11.7026 15.7817 11.6279 15.9062 11.6279 16.0889C11.6279 16.3213 11.7856 16.4873 12.0181 16.4873C12.0845 16.4873 12.1509 16.4707 12.2256 16.4458L12.8896 16.1553V18.7949C12.8896 19.1768 13.1221 19.4507 13.5869 19.4507Z" fill="white"/>
</svg>
