<svg width="29" height="30" viewBox="0 0 29 30" fill="none" xmlns="http://www.w3.org/2000/svg">
<path d="M0 6.90195C0 4.66174 0 3.54164 0.435974 2.68599C0.819467 1.93334 1.43139 1.32142 2.18404 0.937927C3.03969 0.501953 4.15979 0.501953 6.4 0.501953H22.6C24.8402 0.501953 25.9603 0.501953 26.816 0.937927C27.5686 1.32142 28.1805 1.93334 28.564 2.68599C29 3.54164 29 4.66174 29 6.90195V23.102C29 25.3422 29 26.4623 28.564 27.3179C28.1805 28.0706 27.5686 28.6825 26.816 29.066C25.9603 29.502 24.8402 29.502 22.6 29.502H6.4C4.15979 29.502 3.03969 29.502 2.18404 29.066C1.43139 28.6825 0.819467 28.0706 0.435974 27.3179C0 26.4623 0 25.3422 0 23.102V6.90195Z" fill="#34C759"/>
<path d="M7.92969 20.791C7.92969 22.4238 8.73438 23.2363 10.3516 23.2363H18.6484C20.2656 23.2363 21.0703 22.4238 21.0703 20.791V8.93945C21.0703 7.31445 20.2656 6.48633 18.6484 6.48633H10.3516C8.73438 6.48633 7.92969 7.31445 7.92969 8.93945V20.791ZM9.1875 20.7676V8.96289C9.1875 8.18164 9.60156 7.74414 10.4141 7.74414H18.5859C19.3984 7.74414 19.8125 8.18164 19.8125 8.96289V20.7676C19.8125 21.5488 19.3984 21.9785 18.5859 21.9785H10.4141C9.60156 21.9785 9.1875 21.5488 9.1875 20.7676ZM10.8125 9.08008C10.5 9.08008 10.3125 9.2832 10.3125 9.61133V10.916C10.3125 11.2363 10.5 11.4473 10.8125 11.4473H15.6094C15.9141 11.4473 16.1094 11.2363 16.1094 10.916V9.61133C16.1094 9.2832 15.9141 9.08008 15.6094 9.08008H10.8125ZM10.8125 12.1426C10.5 12.1426 10.3125 12.3457 10.3125 12.6738V13.9785C10.3125 14.3066 10.5 14.5098 10.8125 14.5098H18.2109C18.5234 14.5098 18.7031 14.3066 18.7031 13.9785V12.6738C18.7031 12.3457 18.5234 12.1426 18.2109 12.1426H10.8125ZM10.8125 15.2207C10.5 15.2207 10.3125 15.416 10.3125 15.7363V17.0488C10.3125 17.377 10.5 17.5723 10.8125 17.5723H16.9219C17.2344 17.5723 17.4141 17.377 17.4141 17.0488V15.7363C17.4141 15.416 17.2344 15.2207 16.9219 15.2207H10.8125ZM10.8125 18.2832C10.5 18.2832 10.3125 18.4863 10.3125 18.8145V20.1191C10.3125 20.4395 10.5 20.6504 10.8125 20.6504H14.3516C14.6562 20.6504 14.8438 20.4395 14.8438 20.1191V18.8145C14.8438 18.4863 14.6562 18.2832 14.3516 18.2832H10.8125Z" fill="white"/>
</svg>
