<svg width="29" height="30" viewBox="0 0 29 30" fill="none" xmlns="http://www.w3.org/2000/svg">
<path d="M0 6.90391C0 4.6637 0 3.54359 0.435974 2.68794C0.819467 1.9353 1.43139 1.32337 2.18404 0.93988C3.03969 0.503906 4.15979 0.503906 6.4 0.503906H22.6C24.8402 0.503906 25.9603 0.503906 26.816 0.93988C27.5686 1.32337 28.1805 1.9353 28.564 2.68794C29 3.54359 29 4.6637 29 6.90391V23.1039C29 25.3441 29 26.4642 28.564 27.3199C28.1805 28.0725 27.5686 28.6844 26.816 29.0679C25.9603 29.5039 24.8402 29.5039 22.6 29.5039H6.4C4.15979 29.5039 3.03969 29.5039 2.18404 29.0679C1.43139 28.6844 0.819467 28.0725 0.435974 27.3199C0 26.4642 0 25.3441 0 23.1039V6.90391Z" fill="#FF9500"/>
<path d="M3.96631 8.87012C3.96631 9.7832 4.71338 10.5469 5.63477 10.5469C6.56445 10.5469 7.31982 9.7832 7.31982 8.87012C7.31982 7.94873 6.56445 7.18506 5.63477 7.18506C4.71338 7.18506 3.96631 7.94873 3.96631 8.87012ZM21.6885 8.87012C21.6885 9.7832 22.4438 10.5469 23.3652 10.5469C24.2866 10.5469 25.0503 9.7832 25.0503 8.87012C25.0503 7.94873 24.2866 7.18506 23.3652 7.18506C22.4438 7.18506 21.6885 7.94873 21.6885 8.87012ZM2.03223 17.6938C2.02393 18.167 2.30615 18.4492 2.71289 18.4492C3.11963 18.4492 3.40186 18.167 3.41016 17.6938L3.40186 14.1992C3.40186 14.0249 3.49316 13.9004 3.64258 13.9004C3.78369 13.9004 3.875 14.0249 3.875 14.1992V23.0396C3.875 23.5708 4.20703 23.8613 4.65527 23.8613C5.09521 23.8613 5.41895 23.5708 5.41895 23.0396V17.5527C5.41895 17.3784 5.50195 17.2622 5.63477 17.2622C5.76758 17.2622 5.85889 17.3784 5.85889 17.5527V23.0396C5.85889 23.5708 6.19092 23.8613 6.62256 23.8613C7.0708 23.8613 7.40283 23.5708 7.40283 23.0396V14.1992C7.40283 14.0249 7.47754 13.9004 7.63525 13.9004C7.77637 13.9004 7.85938 14.0249 7.85938 14.1992L7.86768 17.6938C7.85938 18.167 8.1582 18.4492 8.55664 18.4492C8.97168 18.4492 9.24561 18.167 9.24561 17.6938V14.249C9.24561 12.0742 8.03369 11.2358 5.63477 11.2358C3.25244 11.2358 2.02393 12.0742 2.02393 14.249L2.03223 17.6938ZM19.7544 17.6938C19.7544 18.167 20.0366 18.4492 20.4517 18.4492C20.8418 18.4492 21.1406 18.167 21.1406 17.6938V14.1992C21.1406 14.0249 21.2236 13.9004 21.373 13.9004C21.5225 13.9004 21.5972 14.0249 21.5972 14.1992V23.0396C21.5972 23.5708 21.9375 23.8613 22.3857 23.8613C22.8257 23.8613 23.1411 23.5708 23.1411 23.0396V17.5527C23.1411 17.3784 23.2407 17.2622 23.3652 17.2622C23.5063 17.2622 23.5811 17.3784 23.5811 17.5527V23.0396C23.5811 23.5708 23.9214 23.8613 24.353 23.8613C24.8013 23.8613 25.125 23.5708 25.125 23.0396V14.1992C25.125 14.0249 25.2163 13.9004 25.3657 13.9004C25.5068 13.9004 25.5981 14.0249 25.5981 14.1992V17.6938C25.5981 18.167 25.8887 18.4492 26.2954 18.4492C26.7021 18.4492 26.9761 18.167 26.9761 17.6938V14.249C26.9761 12.0742 25.7559 11.2358 23.3652 11.2358C20.9746 11.2358 19.7544 12.0742 19.7544 14.249V17.6938ZM11.3125 16.5649C11.8936 16.5649 12.3667 16.1001 12.3667 15.5107C12.3667 14.9214 11.8936 14.4565 11.3125 14.4565C10.7231 14.4565 10.25 14.9214 10.25 15.5107C10.25 16.1001 10.7231 16.5649 11.3125 16.5649ZM14.5083 16.5649C15.0977 16.5649 15.5708 16.1001 15.5708 15.5107C15.5708 14.9214 15.0977 14.4565 14.5083 14.4565C13.9272 14.4565 13.4541 14.9214 13.4541 15.5107C13.4541 16.1001 13.9272 16.5649 14.5083 16.5649ZM17.7041 16.5649C18.2935 16.5649 18.7583 16.1001 18.7583 15.5107C18.7583 14.9214 18.2935 14.4565 17.7041 14.4565C17.1147 14.4565 16.6499 14.9214 16.6499 15.5107C16.6499 16.1001 17.1147 16.5649 17.7041 16.5649Z" fill="white"/>
</svg>
