<svg width="29" height="30" viewBox="0 0 29 30" fill="none" xmlns="http://www.w3.org/2000/svg">
<rect y="0.505005" width="29" height="29" rx="4" fill="#34C759"/>
<path d="M18.9824 7.88342H12.2256C11.7524 7.88342 11.4785 8.12415 11.4868 8.54749C11.4951 8.97083 11.7524 9.21985 12.2256 9.21985H18.9658C19.7959 9.21985 20.2524 9.65979 20.2524 10.5231V19.5377L19.0156 18.2096L18.2188 17.4293C17.9365 17.1554 17.5464 17.1222 17.2559 17.4044C16.9736 17.6866 16.9902 18.0934 17.2725 18.3756L20.0698 21.1564C20.6177 21.6959 21.2153 21.6959 21.7632 21.1564L24.5522 18.3756C24.8428 18.0934 24.8511 17.6866 24.5771 17.4044C24.2949 17.1222 23.8965 17.1471 23.6143 17.4293L22.8174 18.2096L21.5889 19.5294V10.4567C21.5889 8.7384 20.7173 7.88342 18.9824 7.88342ZM10.0176 23.1652H16.7744C17.2476 23.1652 17.5215 22.9244 17.5132 22.5011C17.5049 22.0695 17.2476 21.8287 16.7744 21.8287H10.0425C9.2124 21.8287 8.74756 21.3888 8.74756 20.5255V11.5109L9.98438 12.8307L10.7812 13.6193C11.0635 13.8932 11.4619 13.9264 11.7441 13.6359C12.0264 13.3619 12.0098 12.9552 11.7275 12.673L8.93018 9.88391C8.39062 9.35266 7.78467 9.35266 7.24512 9.88391L4.44775 12.673C4.15723 12.9552 4.14893 13.3619 4.42285 13.6359C4.71338 13.9264 5.10352 13.8932 5.38574 13.6193L6.18262 12.8307L7.41113 11.5192V20.5919C7.41113 22.3102 8.29102 23.1652 10.0176 23.1652Z" fill="white"/>
</svg>
