<svg width="29" height="30" viewBox="0 0 29 30" fill="none" xmlns="http://www.w3.org/2000/svg">
<rect y="0.504501" width="29" height="29" rx="4" fill="#FF2D55"/>
<path d="M20.8086 12.1329C22.3774 12.1329 23.6807 10.8297 23.6807 9.25255C23.6807 7.6754 22.3774 6.37218 20.8086 6.37218C19.2231 6.37218 17.9282 7.6754 17.9282 9.25255C17.9282 10.8297 19.2231 12.1329 20.8086 12.1329ZM6.84668 18.7154C6.84668 20.1349 6.97119 21.3136 7.81787 22.1603C8.66455 23.0069 9.85986 23.1398 11.271 23.1398H17.7207C19.1401 23.1398 20.3354 23.0069 21.1821 22.1603C22.0288 21.3136 22.1533 20.1349 22.1533 18.7154V13.0626C21.7881 13.1871 21.3896 13.2535 20.9746 13.2369C20.9165 13.2535 20.875 13.2535 20.8169 13.2618V18.9396C20.8169 19.8028 20.709 20.6827 20.2026 21.1891C19.7046 21.6871 18.8081 21.8033 17.9531 21.8033H11.0469C10.1919 21.8033 9.29541 21.6871 8.78906 21.1891C8.29102 20.6827 8.18311 19.8028 8.18311 18.9396V12.1246C8.18311 11.253 8.29102 10.3566 8.78906 9.85851C9.29541 9.35216 10.2002 9.24425 11.0718 9.24425H16.7993C16.7993 9.18614 16.8076 9.13634 16.8159 9.08653C16.7993 8.67149 16.8657 8.27306 16.9902 7.90782H11.2544C9.85986 7.90782 8.66455 8.04063 7.81787 8.88731C6.97119 9.73399 6.84668 10.921 6.84668 12.3072V18.7154Z" fill="white"/>
</svg>
