<svg width="29" height="30" viewBox="0 0 29 30" fill="none" xmlns="http://www.w3.org/2000/svg">
<rect y="0.501007" width="29" height="29" rx="4" fill="#FF2D55"/>
<path d="M11.2876 13.5738V17.4502H9.61914C7.98389 17.4502 6.65576 18.7368 6.65576 20.3804C6.65576 22.024 7.98389 23.3521 9.61914 23.3521C11.2544 23.3521 12.5825 22.024 12.5825 20.3804V18.7202H16.4092V20.3804C16.4092 22.024 17.7373 23.3521 19.3726 23.3521C21.0078 23.3521 22.3359 22.024 22.3359 20.3804C22.3359 18.7368 21.0078 17.4502 19.3726 17.4502H17.7041V13.5738H19.3726C21.0078 13.5738 22.3359 12.2871 22.3359 10.6436C22.3359 9.00003 21.0078 7.6636 19.3726 7.6636C17.7373 7.6636 16.4092 9.00003 16.4092 10.6436V12.3037H12.5825V10.6436C12.5825 9.00003 11.2544 7.6636 9.61914 7.6636C7.98389 7.6636 6.65576 9.00003 6.65576 10.6436C6.65576 12.2871 7.98389 13.5738 9.61914 13.5738H11.2876ZM9.61914 12.3203C8.70605 12.3203 7.95068 11.565 7.95068 10.6436C7.95068 9.7222 8.70605 8.95853 9.61914 8.95853C10.5322 8.95853 11.2876 9.7222 11.2876 10.6436V12.3203H9.61914ZM19.3726 12.3203H17.7041V10.6436C17.7041 9.7222 18.4595 8.95853 19.3726 8.95853C20.2856 8.95853 21.041 9.7222 21.041 10.6436C21.041 11.565 20.2856 12.3203 19.3726 12.3203ZM12.5825 17.4668V13.5572H16.4092V17.4668H12.5825ZM9.61914 18.6953H11.2876V20.3721C11.2876 21.2935 10.5322 22.0489 9.61914 22.0489C8.70605 22.0489 7.95068 21.2935 7.95068 20.3721C7.95068 19.4507 8.70605 18.6953 9.61914 18.6953ZM19.3726 18.6953C20.2856 18.6953 21.041 19.4507 21.041 20.3721C21.041 21.2935 20.2856 22.0489 19.3726 22.0489C18.4595 22.0489 17.7041 21.2935 17.7041 20.3721V18.6953H19.3726Z" fill="white"/>
</svg>
