<svg width="29" height="30" viewBox="0 0 29 30" fill="none" xmlns="http://www.w3.org/2000/svg">
<path d="M0 6.90049C0 4.66028 0 3.54017 0.435974 2.68453C0.819467 1.93188 1.43139 1.31996 2.18404 0.936462C3.03969 0.500488 4.15979 0.500488 6.4 0.500488H22.6C24.8402 0.500488 25.9603 0.500488 26.816 0.936462C27.5686 1.31996 28.1805 1.93188 28.564 2.68453C29 3.54017 29 4.66028 29 6.90049V23.1005C29 25.3407 29 26.4608 28.564 27.3165C28.1805 28.0691 27.5686 28.681 26.816 29.0645C25.9603 29.5005 24.8402 29.5005 22.6 29.5005H6.4C4.15979 29.5005 3.03969 29.5005 2.18404 29.0645C1.43139 28.681 0.819467 28.0691 0.435974 27.3165C0 26.4608 0 25.3407 0 23.1005V6.90049Z" fill="#007AFF"/>
<path d="M11.2876 13.5732V17.4497H9.61914C7.98389 17.4497 6.65576 18.7363 6.65576 20.3799C6.65576 22.0234 7.98389 23.3516 9.61914 23.3516C11.2544 23.3516 12.5825 22.0234 12.5825 20.3799V18.7197H16.4092V20.3799C16.4092 22.0234 17.7373 23.3516 19.3726 23.3516C21.0078 23.3516 22.3359 22.0234 22.3359 20.3799C22.3359 18.7363 21.0078 17.4497 19.3726 17.4497H17.7041V13.5732H19.3726C21.0078 13.5732 22.3359 12.2866 22.3359 10.6431C22.3359 8.99951 21.0078 7.66309 19.3726 7.66309C17.7373 7.66309 16.4092 8.99951 16.4092 10.6431V12.3032H12.5825V10.6431C12.5825 8.99951 11.2544 7.66309 9.61914 7.66309C7.98389 7.66309 6.65576 8.99951 6.65576 10.6431C6.65576 12.2866 7.98389 13.5732 9.61914 13.5732H11.2876ZM9.61914 12.3198C8.70605 12.3198 7.95068 11.5645 7.95068 10.6431C7.95068 9.72168 8.70605 8.95801 9.61914 8.95801C10.5322 8.95801 11.2876 9.72168 11.2876 10.6431V12.3198H9.61914ZM19.3726 12.3198H17.7041V10.6431C17.7041 9.72168 18.4595 8.95801 19.3726 8.95801C20.2856 8.95801 21.041 9.72168 21.041 10.6431C21.041 11.5645 20.2856 12.3198 19.3726 12.3198ZM12.5825 17.4663V13.5566H16.4092V17.4663H12.5825ZM9.61914 18.6948H11.2876V20.3716C11.2876 21.293 10.5322 22.0483 9.61914 22.0483C8.70605 22.0483 7.95068 21.293 7.95068 20.3716C7.95068 19.4502 8.70605 18.6948 9.61914 18.6948ZM19.3726 18.6948C20.2856 18.6948 21.041 19.4502 21.041 20.3716C21.041 21.293 20.2856 22.0483 19.3726 22.0483C18.4595 22.0483 17.7041 21.293 17.7041 20.3716V18.6948H19.3726Z" fill="white"/>
</svg>
