<svg width="24" height="24" viewBox="0 0 24 24" fill="none" xmlns="http://www.w3.org/2000/svg">
<path d="M12 14.6055C14.0996 14.6055 15.5449 13.0234 15.5449 10.7773V4.63477C15.5449 2.37891 14.0996 0.806641 12 0.806641C9.89062 0.806641 8.44531 2.37891 8.44531 4.63477V10.7773C8.44531 13.0234 9.89062 14.6055 12 14.6055ZM12 13.1504C10.75 13.1504 9.91992 12.2227 9.91992 10.7773V4.63477C9.91992 3.18945 10.75 2.26172 12 2.26172C13.25 2.26172 14.0703 3.18945 14.0703 4.63477V10.7773C14.0703 12.2227 13.25 13.1504 12 13.1504ZM7.63477 21.7051H16.3555C16.7656 21.7051 17.0977 21.3828 17.0977 20.9727C17.0977 20.5625 16.7656 20.2305 16.3555 20.2305H12.7324V17.9551C16.4629 17.6426 18.9824 14.9668 18.9824 11.1289V9.14648C18.9824 8.73633 18.6602 8.41406 18.25 8.41406C17.8398 8.41406 17.5078 8.73633 17.5078 9.14648V11.0703C17.5078 14.4004 15.3398 16.6074 12 16.6074C8.65039 16.6074 6.48242 14.4004 6.48242 11.0703V9.14648C6.48242 8.73633 6.16016 8.41406 5.74023 8.41406C5.33008 8.41406 5.00781 8.73633 5.00781 9.14648V11.1289C5.00781 14.9668 7.53711 17.6426 11.2578 17.9551V20.2305H7.63477C7.22461 20.2305 6.89258 20.5625 6.89258 20.9727C6.89258 21.3828 7.22461 21.7051 7.63477 21.7051Z" fill="#007AFF"/>
</svg>
