<svg width="22" height="23" viewBox="0 0 22 23" fill="none" xmlns="http://www.w3.org/2000/svg">
<path d="M11 22.2026C16.9941 22.2026 21.957 17.229 21.957 11.2456C21.957 5.25146 16.9834 0.288574 10.9893 0.288574C5.00586 0.288574 0.0429688 5.25146 0.0429688 11.2456C0.0429688 17.229 5.0166 22.2026 11 22.2026ZM11 20.3765C5.92969 20.3765 1.87988 16.3159 1.87988 11.2456C1.87988 6.17529 5.91895 2.11475 10.9893 2.11475C16.0596 2.11475 20.1201 6.17529 20.1309 11.2456C20.1416 16.3159 16.0703 20.3765 11 20.3765ZM10.9893 13.1899C11.4941 13.1899 11.7949 12.8999 11.8057 12.3413L11.9668 6.66943C11.9775 6.12158 11.5479 5.71338 10.9785 5.71338C10.3984 5.71338 9.99023 6.11084 10.001 6.65869L10.1406 12.3413C10.1514 12.8892 10.4521 13.1899 10.9893 13.1899ZM10.9893 16.6812C11.6016 16.6812 12.1387 16.187 12.1387 15.564C12.1387 14.9302 11.6123 14.4468 10.9893 14.4468C10.3555 14.4468 9.8291 14.9409 9.8291 15.564C9.8291 16.1763 10.3662 16.6812 10.9893 16.6812Z" fill="#FF3B30"/>
</svg>
